<svg width="84" height="49" viewBox="0 0 84 49" fill="none" xmlns="http://www.w3.org/2000/svg">
<path fill-rule="evenodd" clip-rule="evenodd" d="M42.8552 47.6364C42.6991 46.7456 42.7358 36.6168 42.7726 35.074C42.8001 34.0639 43.2501 34.0639 44.8296 33.9812C45.252 33.9629 45.6193 34.0363 45.8489 33.871C45.702 33.6323 45.0683 33.7425 44.4714 33.7425H39.6503C39.3381 34.3026 37.0332 42.6133 36.4638 44.1285L32.6713 33.7333C31.8815 33.7333 27.1523 33.7517 26.7941 33.7608C26.8217 34.1006 26.739 33.9353 27.1615 33.9812C27.7308 34.0455 28.1165 34.0363 28.6767 34.3945C30.1 35.2852 29.6684 39.1053 29.6684 40.9787C29.6684 42.3653 29.797 44.6152 29.5582 45.8732C29.2919 47.315 28.6032 47.9027 27.2533 48.0221C26.987 48.0496 26.8676 48.0037 26.8125 48.0496C26.7758 48.0772 26.7941 48.1506 26.8033 48.3067C26.8676 48.3526 27.3451 48.3343 28.0063 48.3343C28.5389 48.3343 29.2001 48.3159 29.8613 48.3067C31.3122 48.2975 32.7998 48.3067 33.1671 48.3067C33.1212 47.9027 33.3508 48.1231 32.3774 47.9761C31.505 47.8751 30.7336 47.5905 30.3939 46.7456C29.8062 45.3131 30.0082 40.3634 30.0082 38.5544C30.0082 37.1861 29.9255 35.5332 30.0266 34.2016C30.3388 34.4771 31.1193 36.9933 31.3397 37.6269C31.753 38.8207 32.1662 39.9869 32.5794 41.1532C33.2957 43.1459 34.4803 46.3507 35.0772 48.2608H35.5915C36.069 46.3599 37.0791 43.2928 37.6852 41.2266C37.9515 40.2991 39.5861 34.4955 39.8707 34.1833C39.8799 34.2016 39.8983 34.2108 39.8983 34.2384L39.9901 44.2111C39.9901 45.111 40.082 46.7732 39.9167 47.5813C39.7238 47.9119 38.3188 48.0221 37.8413 48.0404C37.3362 48.0496 37.2169 48.0588 37.1618 48.0496C37.1434 48.0496 37.1709 48.1414 37.1618 48.2792L48.9068 48.3067C49.3109 48.2975 49.6415 48.3159 49.6782 48.3159C49.6782 48.1139 49.6966 48.0496 49.669 48.0496C49.6323 48.0588 49.5037 48.068 48.8793 47.967C47.9977 47.8476 47.2447 47.4619 47.2722 46.3967C47.2906 45.7447 47.9793 43.8162 48.2456 43.2193L52.5157 43.201C52.8004 43.7244 53.0851 44.7162 53.3055 45.3222C54.1044 47.4986 54.536 47.8659 52.6351 47.9853L51.3311 48.0129C50.9546 48.0772 51.1291 47.9119 51.0832 48.2608C55.4543 48.27 59.8254 48.2608 64.1965 48.2608C66.4556 48.2608 68.081 48.3618 69.8441 47.3517C74.307 44.808 74.555 37.5626 69.5686 34.6424C67.7779 33.5955 66.2352 33.7425 63.9578 33.7425H58.2184C57.897 33.7425 57.6215 33.6506 57.4929 33.871C57.5113 33.8802 57.5389 33.8802 57.548 33.8986L57.8052 33.972C58.1633 34.0088 60.2111 33.9629 60.5141 34.4128C60.6703 34.6516 60.7437 47.269 60.4774 47.5996C60.1744 47.9853 57.594 48.3986 57.0246 47.5078C56.694 46.9752 53.2504 37.4157 52.6351 35.7352C52.4056 35.1107 52.1025 34.1282 51.8178 33.568H51.3771C50.8077 34.8995 50.3486 36.4239 49.8527 37.7922C49.1731 39.6471 47.4008 44.8998 46.6937 46.2773C46.005 47.6272 44.7469 48.4812 42.8552 47.6364ZM48.3558 42.9163L52.4056 42.9347C52.3872 42.852 50.7342 38.0034 50.4679 37.4891C50.3853 37.3422 50.4128 37.3973 50.3577 37.333L48.3558 42.9163ZM63.3976 35.2393V46.8834C63.3976 48.2149 63.8751 48.0221 66.1342 48.0221C70.0186 48.0221 70.3492 43.9815 70.3492 40.9787C70.3492 37.6361 69.5227 33.9629 66.1342 33.9629C63.5078 33.9629 63.3976 33.9537 63.3976 35.2393Z" fill="#0EAAA1"/>
<path fill-rule="evenodd" clip-rule="evenodd" d="M20.4383 33.6139C15.1856 34.3026 13.0368 40.4093 15.1397 44.6059C16.361 47.0303 18.9323 48.8118 21.9994 48.4077C23.9737 48.1506 25.544 46.8466 26.3797 45.763C28.7397 42.7142 28.4275 37.6636 25.6267 35.3311C24.387 34.3026 22.7616 33.3108 20.4383 33.6139ZM20.5117 33.8618C17.6283 34.4587 17.2885 38.6094 17.3803 41.7868C17.4722 44.7712 18.3445 48.9036 21.8341 48.1781C25.6818 47.37 25.443 38.5084 24.0105 35.6617C23.4503 34.5505 22.33 33.4853 20.5117 33.8618Z" fill="#0EAAA1"/>
<path fill-rule="evenodd" clip-rule="evenodd" d="M36.2702 16.8366C35.2417 16.9835 34.3969 17.3141 33.6164 17.7549C32.6338 18.3151 31.8165 19.0221 31.091 19.7568L29.9707 21.2995C29.5299 22.0525 29.1718 22.9341 28.9422 23.9167C27.877 28.4347 30.5309 32.1539 35.0214 31.6212C37.1426 31.3641 38.6486 30.1703 39.7598 29.1602C43.1575 26.0747 44.1768 19.2976 39.4567 17.2223C38.5476 16.8182 37.3538 16.6805 36.2702 16.8366ZM36.6559 17.0294C33.8367 17.4335 32.597 20.8679 31.9726 23.7973C31.3573 26.6808 30.7237 32.0988 34.8285 31.4008C37.4732 30.9509 38.7588 27.4338 39.3925 24.5779C40.0261 21.722 40.6046 16.4693 36.6559 17.0294Z" fill="#0EAAA1"/>
<path fill-rule="evenodd" clip-rule="evenodd" d="M42.5147 17.2314C42.8177 17.2957 45.1135 17.0294 45.5267 17.5528C45.7104 17.8008 43.5432 28.251 43.1942 29.9315C42.9371 31.1988 42.7626 31.1621 40.7516 31.2172C39.6496 31.2447 39.7873 31.0886 39.668 31.4743C41.9729 31.4743 44.2687 31.4743 46.5736 31.4743C49.9529 31.4743 52.414 31.9426 54.6914 29.2979C55.1964 28.701 55.6097 27.6909 55.4719 26.5981C55.3434 25.6155 54.6822 24.9268 54.0302 24.5595C53.0752 24.0177 52.4875 23.9901 51.3947 23.7055C51.8171 23.733 53.3966 23.2739 53.8282 23.0994C56.7025 21.9148 56.7759 18.8752 54.4802 17.5528C53.0476 16.7356 50.5774 16.9468 48.7591 16.9468L42.5239 16.9835C42.5239 17.1672 42.5239 17.0386 42.5147 17.2314ZM47.2531 23.6228C50.6049 23.632 52.7538 23.7881 53.3231 20.2526C53.7363 17.6814 52.6436 17.1763 50.2927 17.1672C49.8978 17.1672 49.2091 17.1396 48.8602 17.2406C48.4286 17.36 48.4102 17.7732 48.3 18.2875L47.2531 23.6228ZM47.951 31.2539H48.6765C51.2569 31.2539 52.5334 29.3897 52.6711 26.8369C52.8548 23.4024 50.0448 23.8524 47.198 23.8432L45.8757 30.6386C45.8757 31.3825 47.1246 31.2539 47.951 31.2539Z" fill="#0EAAA1"/>
<path fill-rule="evenodd" clip-rule="evenodd" d="M0.18114 7.01076C0.318885 7.00158 0.337251 7.01994 0.355617 7.01076C0.355617 7.00158 0.355617 6.98321 0.3648 6.9373L0.73212 5.9639C1.3382 4.40279 2.38506 2.16213 3.86353 1.33566C4.44206 1.01425 5.40627 0.766313 6.08581 0.830594C6.71026 0.885692 6.39804 1.48259 6.10418 2.92432L3.97372 13.6593C3.72578 14.8531 3.23908 14.8163 1.31065 14.8714C0.943329 14.8898 0.585192 14.899 0.227055 14.9081C0.126042 14.9724 0.217872 14.8714 0.190323 15.1469C0.45663 15.1928 6.98575 15.1377 7.61938 15.1285L9.56618 15.1377C10.0529 15.1285 9.9335 15.2112 9.97941 14.8898C9.24477 14.8898 7.8765 14.8531 7.14186 14.7429C6.88474 14.6602 6.88474 14.651 6.71944 14.4582C6.54497 14.1735 8.35402 5.63331 8.63869 4.17321C8.77644 3.48448 9.11621 1.18873 9.43761 0.858143C11.0814 0.6653 12.1742 1.30811 12.6241 2.51109C13.322 4.46707 12.918 6.68017 13.0374 7.04749C13.4322 7.01076 13.2853 7.21279 13.4598 6.41386L13.9373 3.98037C14.1577 2.90595 14.4515 1.71216 14.5893 0.619385H1.3933C1.14536 0.702032 0.741303 3.32837 0.667839 3.71406L0.0893095 6.56079C0.0342114 6.79955 -0.0392526 6.97403 0.0250284 7.00158C0.0709435 7.01994 0.126042 7.01076 0.18114 7.01076Z" fill="#0EAAA1"/>
<path fill-rule="evenodd" clip-rule="evenodd" d="M11.4204 31.5019C11.4572 31.5019 11.4388 31.4101 11.5123 30.9693C11.549 30.7764 11.5857 30.5744 11.6317 30.3632L12.3479 26.7267C12.7795 24.5871 12.4214 24.4861 15.0569 24.3667C15.3691 24.3667 15.4977 24.3942 15.5069 24.3391C15.5161 24.2932 15.5344 24.2381 15.5436 24.1004L8.65636 24.1371C8.49106 24.1371 8.31659 24.1279 8.15129 24.1371C7.89417 24.1463 7.82989 24.1187 7.78397 24.1371C7.77479 24.1463 7.78397 24.183 7.77479 24.2473L7.78397 24.3667C8.29822 24.3667 9.75832 24.3208 10.0246 24.734C10.0981 25.3584 9.37263 28.6551 9.13387 29.2429C8.61963 30.4642 7.51766 31.3641 5.83717 31.4468C2.30171 31.6121 3.07309 26.2767 3.6608 23.6871C4.27606 20.9598 5.63515 17.6631 7.96763 17.0846C10.447 16.4785 11.9622 18.462 12.3938 20.6108C12.5683 21.6118 12.4581 22.9433 12.5591 23.1637C12.6601 23.1729 12.7887 23.1913 12.7887 23.127C12.7887 23.0351 12.8346 22.8882 12.8989 22.5025L13.3856 20.0782C13.5876 19.0314 13.8815 17.8927 14.0009 16.8733L12.302 19.0589C12.1092 18.8844 11.9347 18.5079 11.7786 18.3059C11.5674 18.012 11.4021 17.7733 11.145 17.5713C10.6399 17.1764 10.0154 16.8917 9.15224 16.8091C5.19436 16.4326 1.36505 20.3353 0.511026 24.5779C-0.811327 31.1529 4.87296 33.1273 8.49106 30.703C9.04204 30.3356 9.40018 29.8214 10.2817 29.7296C11.6408 29.6102 11.2368 30.9876 11.2276 31.4835C11.2276 31.5111 11.3837 31.5019 11.4204 31.5019Z" fill="#0EAAA1"/>
<path fill-rule="evenodd" clip-rule="evenodd" d="M52.946 31.511L58.0518 31.5018C58.5752 31.4743 58.667 31.5661 58.667 31.3825C58.667 31.3549 58.667 31.3182 58.667 31.2723C58.1069 31.2264 55.9305 31.41 56.7294 29.2245C56.8855 28.7745 58.0242 26.5889 58.2905 26.4145H62.5239C62.6525 27.4338 63.2218 29.8765 63.1392 30.7305C62.8912 31.2172 61.3393 31.2539 60.7699 31.2631C60.6506 31.2631 60.2832 31.2631 60.1271 31.2631C60.0353 31.2723 60.0629 31.3641 60.0629 31.5018H66.6195C67.4552 31.4927 67.3909 31.5845 67.4001 31.2355C66.9134 31.1896 66.7756 31.1804 66.491 31.0886C65.9216 30.8315 65.8298 29.2428 65.7012 28.4806L64.3881 20.7485C64.1768 19.4446 63.8738 18.0579 63.7361 16.7815C63.3045 16.7815 63.332 16.6896 63.1392 16.9651L62.276 18.5262C60.4761 21.7311 58.4007 25.6339 56.5825 28.6735C55.8479 29.904 54.9663 31.0427 53.5154 31.2264C53.0379 31.2815 52.8909 31.1437 52.946 31.511ZM58.4191 26.139L62.3953 26.1481C62.478 25.6523 61.6882 21.4281 61.5689 20.5741C61.275 20.8128 60.9352 21.575 60.7057 21.9791C60.2924 22.7229 58.4926 25.8267 58.4191 26.139Z" fill="#0EAAA1"/>
<path fill-rule="evenodd" clip-rule="evenodd" d="M0.300104 33.7884C0.31847 33.8619 0.300104 33.9629 0.309287 34.0088C0.31847 34.0363 0.391934 34.0272 0.474581 34.0272C0.750072 34.0363 1.33778 33.9904 2.15507 34.4037C2.66932 34.7067 3.06419 35.2118 3.23867 35.9005C3.44069 36.6994 3.41314 44.9641 3.23867 45.9743C2.94481 47.6456 1.8704 48.0496 0.31847 48.0404C0.290921 48.0404 0.300104 48.0496 0.290921 48.068C0.281738 48.1047 0.281738 48.1966 0.281738 48.3159C0.346019 48.3159 0.566412 48.3159 0.906183 48.3159C1.15412 48.3159 1.45716 48.3067 1.79693 48.3067C2.32037 48.3067 2.93563 48.3067 3.55089 48.3159C5.13955 48.3527 6.65475 48.3067 6.85677 48.3067C6.84759 48.2792 6.85677 48.2333 6.84759 48.1874C6.84759 48.0496 6.86596 48.0496 6.84759 48.0588C6.42517 48.1231 4.86406 47.9762 4.17533 47.0762C3.40396 45.8641 3.67945 41.7317 3.67945 40.0145C3.67945 38.9125 3.58762 37.2963 3.707 36.2586C3.90903 36.3046 4.12942 36.6811 4.27635 36.8831L12.3574 47.6364C12.9359 48.3986 12.7523 48.3435 13.4502 48.3527C13.5145 45.46 13.4594 42.5031 13.4594 39.6104C13.4594 37.1035 13.3308 35.4138 14.2124 34.5873C14.5889 34.2384 15.1123 34.0272 15.9663 34.0088C16.3979 33.9996 16.3061 34.1098 16.3061 33.7884C16.1867 33.7425 14.5981 33.7609 13.0369 33.7609C11.5217 33.7609 10.0341 33.7425 9.9239 33.7884C9.91472 33.8251 9.91472 33.8619 9.91472 33.8986C9.91472 33.9445 9.89635 34.0088 9.93308 34.018C10.4565 34.0823 13.0002 33.5405 13.1196 37.3422C13.1288 38.6646 13.1747 43.1918 13.1012 44.2111C12.5778 43.9632 6.07622 34.973 4.92834 33.7425C4.27635 33.7425 0.658242 33.77 0.300104 33.7884Z" fill="#0EAAA1"/>
<path fill-rule="evenodd" clip-rule="evenodd" d="M15.0299 1.05098C15.0207 1.22546 15.5074 0.904052 15.7921 1.3632C15.9757 1.73052 15.4156 3.98954 15.3237 4.47624L13.68 12.7593C13.2576 14.853 13.5606 14.8347 11.4026 14.899C10.9985 14.9081 11.0812 14.8347 10.9985 15.1285C12.0362 15.1561 13.2759 15.1744 14.4789 15.1653C15.3788 15.1561 16.2604 15.1469 17.0134 15.1653C17.0318 15.0459 17.041 14.9265 17.0042 14.9265C16.4441 14.8898 15.8655 14.9816 15.6635 14.7061C15.3605 14.2837 15.5349 13.0348 16.5634 9.18713C17.0318 7.89232 18.2439 5.55066 19.805 5.77105C20.8611 5.91798 20.6682 7.17605 20.4938 8.10353L19.3734 13.7052C19.2724 14.2378 19.3183 14.6051 18.7582 14.7979C18.2623 14.9449 17.4634 14.9632 17.3256 14.9541C17.3164 14.9541 17.3164 15 17.3164 15.0367C17.3256 15.1561 17.3164 15.0734 17.3164 15.1469H22.5783C22.9089 15.1469 23.065 15.1469 23.1201 15.1377C23.1477 15.1377 23.1293 15.0551 23.1293 14.9357C22.7895 14.9265 21.66 14.9541 21.4396 14.6143C21.109 13.8888 23.1201 8.08517 22.5232 6.67098C22.2845 6.11082 21.8896 5.80778 21.2284 5.62412C19.1622 5.05477 17.5368 6.11082 16.7746 8.05762L18.2347 0.5C17.9684 0.545915 17.3899 0.582647 16.7746 0.619379C16.242 0.646928 15.5074 0.68366 15.1125 0.729575C15.0023 0.738758 15.0482 0.858137 15.0299 1.05098Z" fill="#0EAAA1"/>
<path fill-rule="evenodd" clip-rule="evenodd" d="M14.8362 17.1947C15.1301 17.213 15.9565 17.2314 16.333 17.2498C16.581 17.2773 17.5085 17.3508 17.6646 17.5987C17.8574 17.8926 15.6994 28.0766 15.3596 29.8121C15.176 30.7488 15.2219 30.9417 14.2301 31.0978C13.5598 31.2814 12.5405 31.2631 12.0538 31.2631C12.0078 31.2631 12.0078 31.309 12.0078 31.3641C12.0078 31.5569 11.9895 31.4926 12.7792 31.5018L26.7098 31.4743C26.8476 30.3723 27.169 29.0775 27.3986 27.9388C27.4078 27.6541 28.1424 24.8349 28.0506 24.5595C27.922 24.5595 27.821 24.5595 27.7659 24.5595C27.72 24.5595 27.6924 24.8625 27.619 25.1747C26.8843 28.1959 25.2222 30.6753 21.9163 31.1161C20.9796 31.2355 18.8125 31.2906 18.0778 30.8406C17.9584 30.3172 20.0154 20.2343 20.4195 18.3793C20.6766 17.2498 21.2551 17.3141 22.9907 17.2406C23.6703 17.259 24.0192 17.259 24.0927 17.2314C24.1019 17.2222 24.0927 17.0202 24.0927 16.9927C24.0835 16.9467 23.9458 16.9743 23.7621 16.9651C23.5784 16.9651 23.3305 16.9651 23.0642 16.9743H15.8555C14.7628 17.0018 14.8362 16.8916 14.8362 17.0661C14.8362 17.112 14.8362 17.1396 14.8362 17.1947Z" fill="#0EAAA1"/>
<path fill-rule="evenodd" clip-rule="evenodd" d="M69.1734 17.2039C69.4856 17.2498 71.313 17.1855 71.8457 17.4886C71.9375 17.5529 71.9283 17.5529 71.9834 17.608C72.1487 17.8743 70.2295 27.0481 69.9172 28.6C69.4673 31.0243 69.504 31.0151 68.549 31.1253C68.0898 31.2172 68.2092 30.9876 68.1816 31.4651C68.1908 31.5294 68.2276 31.5018 68.8704 31.5018L74.5455 31.4743C76.6851 31.4743 78.889 31.5202 81.0195 31.4651C81.1113 30.8407 82.2225 24.5411 82.3786 24.5595C82.3878 24.5595 82.1674 24.5595 82.1031 24.5595C82.0021 24.5503 82.0572 25.2023 81.7082 26.0012C81.5337 26.543 81.3501 27.0205 81.1113 27.5072C80.5971 28.5541 79.991 29.2796 79.2196 29.8948C78.485 30.4825 77.4289 30.9601 76.2443 31.1162C75.2985 31.2355 73.1313 31.2906 72.3875 30.8499C72.2773 30.354 74.3343 20.1976 74.7291 18.3793C74.9863 17.3049 75.9872 17.3508 76.878 17.2406C77.6034 17.158 78.283 17.2406 78.3748 17.2131C78.4115 17.2039 78.3931 17.1672 78.4023 17.1304C78.4023 17.0937 78.4023 17.0478 78.4023 17.0202C78.4115 16.9376 76.0056 17.057 74.0771 17.0019C72.7823 16.9651 71.6436 16.956 71.3865 16.9468L69.5958 16.9743C69.2652 16.9835 69.1734 16.9651 69.1734 16.9835C69.1734 17.0111 69.1734 17.0753 69.1734 17.2039Z" fill="#0EAAA1"/>
<path fill-rule="evenodd" clip-rule="evenodd" d="M73.8562 43.5316C73.746 45.1753 73.8653 47.9761 73.8653 48.4904C74.3612 47.9578 74.8112 47.2782 75.2703 46.6813C75.6928 47.1221 75.9591 47.4527 76.5284 47.7925C76.6294 47.8568 76.7396 47.9027 76.8682 47.9486C77.5845 48.2884 78.4109 48.4904 79.2282 48.4996C80.7801 48.5179 82.3321 47.9027 83.2136 46.5069C83.9942 45.2763 84.0768 43.1183 83.4065 41.7409C82.1392 39.1696 77.5753 39.7482 75.4632 37.9667C74.15 36.8647 74.3888 35.0097 75.858 34.2108C78.567 32.7507 81.5791 35.0097 82.2311 37.9024C82.2862 38.2146 82.3229 38.3432 82.2953 38.4625C82.2862 38.4901 82.4239 38.4809 82.5249 38.4717C82.5708 38.1503 82.5433 34.2567 82.5249 33.6139C82.2035 33.7792 82.0933 33.917 81.8178 34.1833C81.5791 34.4128 81.3679 34.569 81.1015 34.8261C80.8077 34.7067 80.4771 34.4404 80.2016 34.2659C79.8894 34.0731 79.6323 33.9261 79.2098 33.8068C73.6817 32.163 71.441 38.5911 74.6734 40.7675C76.9784 42.3194 81.7444 42.1358 82.3963 44.9182C82.8096 46.6722 81.3403 48.068 79.8435 48.2241C78.9619 48.3894 77.9701 48.2149 77.2447 47.8568C75.0316 46.8558 74.0214 42.7969 74.1316 42.2643C74.1408 42.2368 73.9204 42.2735 73.8745 42.2735C73.8286 42.2643 73.9112 42.6133 73.8562 43.5316Z" fill="#0EAAA1"/>
<path fill-rule="evenodd" clip-rule="evenodd" d="M31.054 11.5012C31.0356 11.5012 31.0173 11.5012 30.9989 11.5012C30.9622 11.5012 30.9346 11.492 30.9255 11.5288C30.8704 11.7492 30.7785 12.1624 30.5214 12.7134C29.3735 14.9724 25.8197 16.2029 25.3054 13.6776C25.1585 12.9246 25.2595 11.9879 25.3789 11.2166C25.4799 10.537 25.4248 10.5554 25.636 10.4911H31.2836C32.7988 3.50282 25.0024 4.38439 23.3219 9.88502C22.9362 11.1431 22.826 12.5297 23.4872 13.6317C23.9831 14.4582 24.8647 15.2663 26.2146 15.3305C27.5737 15.3948 28.7399 14.9173 29.5205 14.2286C29.9245 13.8704 30.2184 13.5766 30.5306 13.0532C30.6959 12.7868 31.1826 11.9328 31.1183 11.5196C31.1091 11.492 31.0816 11.5012 31.054 11.5012ZM25.5809 10.1881L29.4286 10.2064C29.649 8.71877 30.4755 5.04557 27.9502 5.87204C26.4625 6.35874 25.8013 8.73714 25.5809 10.1881Z" fill="#0EAAA1"/>
</svg>
