<svg width="83" height="20" viewBox="0 0 83 20" fill="none" xmlns="http://www.w3.org/2000/svg">
<g id="Group">
<g id="Group_2">
<g id="Group_3">
<path id="Vector" d="M6.37427 8.19049C6.6034 8.25027 6.91224 8.34989 7.25096 8.53917C8.1675 9.03729 8.62578 9.78448 8.7254 9.9638C9.36299 11.0696 9.22352 12.1456 9.17371 12.4444C9.11393 12.7931 8.93461 13.61 8.2472 14.3672C7.51995 15.1642 6.66318 15.4132 6.34439 15.4929C6.03555 15.5627 5.13893 15.742 4.12277 15.3435C3.89364 15.2538 2.91732 14.8553 2.26977 13.7894C2.02071 13.3809 1.90116 13.0023 1.83142 12.7334C3.3457 11.2191 4.85998 9.70477 6.37427 8.19049Z" fill="black"/>
<path id="Vector_2" d="M2.84767 7.40348C2.61854 7.34371 2.3097 7.24408 1.97098 7.0548C1.05444 6.55668 0.596165 5.80949 0.496541 5.63017C-0.141052 4.52435 -0.00157875 3.44841 0.0482332 3.14953C0.108008 2.80085 0.287335 1.98394 0.97474 1.2268C1.70199 0.429809 2.55876 0.180744 2.87755 0.101045C3.18639 0.0313086 4.08301 -0.148014 5.09917 0.250481C5.32831 0.340143 6.30462 0.738636 6.95217 1.80461C7.20123 2.21307 7.32079 2.59164 7.39052 2.86062C5.87624 4.37491 4.36196 5.8892 2.84767 7.40348Z" fill="black"/>
<path id="Vector_3" d="M8.10777 14.5167L2.99707 19.6174V17.0172L4.5512 15.4731L8.10777 14.5167Z" fill="black"/>
</g>
<g id="Group_4">
<path id="Vector_4" d="M20.6406 12.7734C18.409 12.7734 17.5522 11.1495 17.5522 11.1495H17.4625V16.2901H15.49V3.60801H17.3729L17.4625 4.98282H17.5522C17.5522 4.98282 18.409 3.35895 20.6406 3.35895C22.8721 3.35895 25.014 5.33151 25.014 8.07116C25.014 10.8108 23.0415 12.7834 20.6406 12.7834V12.7734ZM20.2122 10.9702C21.7563 10.9702 22.9518 9.77473 22.9518 8.0612C22.9518 6.34767 21.7563 5.15218 20.2122 5.15218C18.668 5.15218 17.4725 6.34767 17.4725 8.0612C17.4725 9.77473 18.668 10.9702 20.2122 10.9702Z" fill="black"/>
<path id="Vector_5" d="M30.4136 12.7733C27.5842 12.7733 25.532 10.7211 25.532 8.06109C25.532 5.40113 27.5842 3.34888 30.4136 3.34888C33.2429 3.34888 35.2951 5.40113 35.2951 8.06109C35.2951 10.7211 33.2429 12.7733 30.4136 12.7733ZM30.4136 10.9701C32.0374 10.9701 33.2429 9.77462 33.2429 8.06109C33.2429 6.34756 32.0474 5.15207 30.4136 5.15207C28.7797 5.15207 27.5842 6.34756 27.5842 8.06109C27.5842 9.77462 28.7797 10.9701 30.4136 10.9701Z" fill="black"/>
<path id="Vector_6" d="M42.3585 12.5144V7.11478C42.3585 5.82963 41.5914 5.14222 40.386 5.14222C39.1805 5.14222 37.8157 6.25801 37.8157 7.71252V12.5144H35.8431V3.60801H37.726L37.8157 4.98282H37.9053C37.9053 4.98282 38.6725 3.35895 40.8144 3.35895C42.9563 3.35895 44.3311 4.73376 44.3311 7.04503V12.5243H42.3585V12.5144Z" fill="black"/>
<path id="Vector_7" d="M46.3336 5.4112H44.7097V4.7238L48.2264 0.958008H48.3161V3.61797H51.1454V5.42116H48.3161V9.44597C48.3161 10.4721 48.9138 10.9901 49.6909 10.9901C50.468 10.9901 51.1454 10.3027 51.1454 10.3027H51.4044V12.0163C51.4044 12.0163 50.6373 12.7834 49.2625 12.7834C47.8877 12.7834 46.3535 11.5879 46.3535 9.52566V5.4112H46.3336Z" fill="black"/>
<path id="Vector_8" d="M55.6284 16.2901H53.5761L55.1203 12.4347L51.1752 3.60797H53.2274L56.0567 9.94406H56.1464L58.7167 3.60797H60.7689L55.6284 16.2901Z" fill="black"/>
<path id="Vector_9" d="M66.358 12.7734C64.1264 12.7734 63.2696 11.1495 63.2696 11.1495H63.18V16.2901H61.2074V3.60801H63.0903L63.18 4.98282H63.2696C63.2696 4.98282 64.1264 3.35895 66.358 3.35895C68.5895 3.35895 70.7314 5.33151 70.7314 8.07116C70.7314 10.8108 68.7589 12.7834 66.358 12.7834V12.7734ZM65.9296 10.9702C67.4737 10.9702 68.6692 9.77473 68.6692 8.0612C68.6692 6.34767 67.4737 5.15218 65.9296 5.15218C64.3854 5.15218 63.1899 6.34767 63.1899 8.0612C63.1899 9.77473 64.3854 10.9702 65.9296 10.9702Z" fill="black"/>
<path id="Vector_10" d="M80.2356 7.85196V8.48954H73.1224C73.2918 9.86435 74.3179 10.9702 76.2108 10.9702C78.1036 10.9702 79.3788 9.85439 79.3788 9.85439H79.6378V11.7373C79.6378 11.7373 78.3527 12.7634 75.9916 12.7634C73.6305 12.7634 71.2495 10.7909 71.2495 8.0512C71.2495 5.31155 73.3018 3.33899 75.8721 3.33899C78.4424 3.33899 80.2455 5.05252 80.2455 7.84198L80.2356 7.85196ZM73.2121 6.94537H78.3527C78.1833 5.99894 77.4063 5.14218 75.9518 5.14218C74.4972 5.14218 73.5508 6.0886 73.2121 6.94537Z" fill="black"/>
</g>
</g>
<g id="TM">
<path id="Vector_11" d="M83 4.9229H82.9378V4.19604L82.6066 4.67783H82.6019L82.2707 4.19604V4.9229H82.2109V4.08606H82.2695L82.6054 4.58099L82.9414 4.08606H83V4.9229Z" fill="black"/>
<path id="Vector_12" d="M82.0215 4.14338H81.7298V4.92284H81.6677V4.14338H81.376V4.086H82.0215V4.14338Z" fill="black"/>
</g>
</g>
</svg>
