<svg width="176" height="101" viewBox="0 0 176 101" fill="none" xmlns="http://www.w3.org/2000/svg">
<g id="Logo">
<path id="Vector" fill-rule="evenodd" clip-rule="evenodd" d="M89.9412 98.9276C89.6136 97.0582 89.6907 75.8002 89.7678 72.5624C89.8256 70.4423 90.7699 70.4423 94.0849 70.2689C94.9714 70.2303 95.7423 70.3845 96.2242 70.0376C95.9158 69.5365 94.586 69.7678 93.3332 69.7678H83.215C82.5597 70.9434 77.7222 88.3854 76.5273 91.5654L68.5676 69.7485C66.9101 69.7485 56.9846 69.7871 56.233 69.8063C56.2908 70.5194 56.1173 70.1725 57.0039 70.2689C58.1988 70.4038 59.0083 70.3845 60.1839 71.1362C63.1712 73.0056 62.2654 81.0232 62.2654 84.9548C62.2654 87.865 62.5352 92.5869 62.0341 95.2273C61.4752 98.2531 60.0297 99.4866 57.1966 99.7371C56.6377 99.7949 56.3871 99.6986 56.2715 99.7949C56.1944 99.8527 56.233 100.007 56.2522 100.335C56.3871 100.431 57.3893 100.392 58.777 100.392C59.8948 100.392 61.2825 100.354 62.6701 100.335C65.7152 100.315 68.8374 100.335 69.6083 100.335C69.512 99.4866 69.9938 99.9491 67.9509 99.6407C66.1199 99.4287 64.501 98.8313 63.7879 97.0582C62.5545 94.0516 62.9785 83.6635 62.9785 79.8668C62.9785 76.9951 62.805 73.526 63.017 70.7314C63.6723 71.3096 65.3105 76.5904 65.773 77.9202C66.6403 80.4257 67.5076 82.8733 68.3749 85.321C69.8782 89.5032 72.3644 96.2294 73.6171 100.238H74.6964C75.6986 96.2487 77.8186 89.8116 79.0906 85.4752C79.6495 83.5286 83.0801 71.3482 83.6775 70.6929C83.6968 70.7314 83.7353 70.7507 83.7353 70.8085L83.9281 91.7389C83.9281 93.6276 84.1208 97.116 83.7739 98.812C83.3692 99.5058 80.4204 99.7371 79.4182 99.7757C78.3582 99.7949 78.1077 99.8142 77.992 99.7949C77.9535 99.7949 78.0113 99.9877 77.992 100.277L102.642 100.335C103.49 100.315 104.184 100.354 104.261 100.354C104.261 99.9298 104.299 99.7949 104.242 99.7949C104.165 99.8142 103.895 99.8335 102.584 99.6215C100.734 99.3709 99.1536 98.5615 99.2115 96.3258C99.25 94.9574 100.695 90.9101 101.254 89.6574L110.216 89.6189C110.814 90.7174 111.411 92.7989 111.874 94.0709C113.55 98.6386 114.456 99.4095 110.467 99.66L107.73 99.7178C106.94 99.8527 107.306 99.5058 107.21 100.238C116.384 100.257 125.557 100.238 134.731 100.238C139.472 100.238 142.884 100.45 146.584 98.3302C155.951 92.9916 156.471 77.7853 146.006 71.6565C142.248 69.4594 139.01 69.7678 134.23 69.7678H122.185C121.51 69.7678 120.932 69.5751 120.662 70.0376C120.701 70.0569 120.759 70.0569 120.778 70.0954L121.317 70.2496C122.069 70.3267 126.367 70.2303 127.003 71.1747C127.331 71.6758 127.485 98.1567 126.926 98.8506C126.29 99.66 120.874 100.527 119.679 98.6578C118.985 97.54 111.758 77.4769 110.467 73.95C109.985 72.6395 109.349 70.5773 108.752 69.4016H107.826C106.632 72.1962 105.668 75.3955 104.627 78.2671C103.201 82.1603 99.4813 93.1843 97.9973 96.0753C96.5518 98.9084 93.9114 100.701 89.9412 98.9276ZM101.486 89.0214L109.985 89.0599C109.946 88.8865 106.477 78.7104 105.918 77.6311C105.745 77.3228 105.803 77.4384 105.687 77.3035L101.486 89.0214ZM133.055 72.9093V97.3473C133.055 100.142 134.057 99.7371 138.798 99.7371C146.95 99.7371 147.644 91.257 147.644 84.9548C147.644 77.9395 145.91 70.2303 138.798 70.2303C133.286 70.2303 133.055 70.2111 133.055 72.9093Z" fill="#0F0F0F"/>
<path id="Vector_2" fill-rule="evenodd" clip-rule="evenodd" d="M42.8961 69.498C31.872 70.9435 27.3622 83.7599 31.7757 92.5676C34.339 97.6557 39.7354 101.395 46.1725 100.547C50.3162 100.007 53.6118 97.2702 55.3657 94.996C60.3188 88.5974 59.6635 77.9973 53.7853 73.102C51.1835 70.9435 47.7722 68.862 42.8961 69.498ZM43.0503 70.0184C36.9986 71.2711 36.2855 79.9824 36.4783 86.6508C36.671 92.9145 38.5019 101.587 45.8256 100.065C53.9009 98.3688 53.3998 79.7704 50.3933 73.7958C49.2176 71.4638 46.8663 69.2282 43.0503 70.0184Z" fill="#0F0F0F"/>
<path id="Vector_3" fill-rule="evenodd" clip-rule="evenodd" d="M76.1225 34.2864C73.964 34.5948 72.1909 35.2886 70.5527 36.2137C68.4905 37.3894 66.7752 38.8734 65.2526 40.4152L62.9013 43.653C61.9762 45.2334 61.2246 47.0836 60.7428 49.1458C58.5071 58.6281 64.077 66.4336 73.5014 65.3158C77.9535 64.7761 81.1142 62.2706 83.4462 60.1506C90.5772 53.6749 92.7165 39.4516 82.8102 35.0959C80.9022 34.2479 78.3967 33.9588 76.1225 34.2864ZM76.932 34.6912C71.0152 35.5392 68.4134 42.7472 67.1028 48.8953C65.8115 54.9469 64.4817 66.3179 73.0967 64.8532C78.6473 63.9088 81.3455 56.5273 82.6753 50.5335C84.0051 44.5396 85.2193 33.5155 76.932 34.6912Z" fill="#0F0F0F"/>
<path id="Vector_4" fill-rule="evenodd" clip-rule="evenodd" d="M89.2281 35.1152C89.8641 35.2501 94.6823 34.6912 95.5496 35.7897C95.9351 36.3101 91.3867 58.2426 90.6543 61.7696C90.1147 64.4292 89.7485 64.3521 85.5277 64.4678C83.215 64.5256 83.5041 64.1979 83.2535 65.0074C88.091 65.0074 92.9092 65.0074 97.7467 65.0074C104.839 65.0074 110.004 65.9903 114.784 60.4397C115.844 59.187 116.711 57.067 116.422 54.7735C116.152 52.7113 114.765 51.2658 113.396 50.4949C111.392 49.3578 110.158 49.3 107.865 48.7025C108.752 48.7604 112.066 47.7967 112.972 47.4305C119.005 44.9443 119.159 38.565 114.341 35.7897C111.334 34.0744 106.15 34.5177 102.334 34.5177L89.2474 34.5948C89.2474 34.9803 89.2474 34.7104 89.2281 35.1152ZM99.1729 48.5291C106.207 48.5484 110.717 48.876 111.912 41.4559C112.78 36.0595 110.486 34.9995 105.552 34.9803C104.723 34.9803 103.278 34.9224 102.546 35.1344C101.64 35.385 101.601 36.2523 101.37 37.3316L99.1729 48.5291ZM100.638 64.5448H102.16C107.576 64.5448 110.255 60.6325 110.544 55.2746C110.929 48.0665 105.032 49.0109 99.0573 48.9916L96.282 63.2536C96.282 64.8147 98.9031 64.5448 100.638 64.5448Z" fill="#0F0F0F"/>
<path id="Vector_5" fill-rule="evenodd" clip-rule="evenodd" d="M0.380167 13.6645C0.66926 13.6452 0.707806 13.6837 0.746352 13.6645C0.746352 13.6452 0.746352 13.6066 0.765625 13.5103L1.53654 11.4674C2.80855 8.19097 5.00566 3.48839 8.10859 1.75383C9.32278 1.07928 11.3464 0.558915 12.7726 0.693825C14.0832 0.809463 13.4279 2.0622 12.8112 5.08804L8.33986 27.618C7.8195 30.1235 6.79803 30.0464 2.75073 30.162C1.97982 30.2006 1.22817 30.2199 0.476532 30.2391C0.26453 30.374 0.457259 30.162 0.39944 30.7402C0.958353 30.8366 14.6614 30.721 15.9912 30.7017L20.077 30.721C21.0985 30.7017 20.848 30.8751 20.9443 30.2006C19.4025 30.2006 16.5308 30.1235 14.989 29.8922C14.4494 29.7188 14.4494 29.6995 14.1025 29.2948C13.7363 28.6973 17.533 10.7735 18.1305 7.70915C18.4196 6.26368 19.1327 1.44547 19.8072 0.751644C23.2571 0.346914 25.5505 1.69601 26.4949 4.22076C27.9596 8.32588 27.1116 12.9706 27.3622 13.7416C28.1909 13.6645 27.8826 14.0885 28.2487 12.4117L29.2509 7.30442C29.7135 5.04949 30.3302 2.54402 30.6193 0.250549H2.92419C2.40382 0.424005 1.55581 5.93605 1.40163 6.74551L0.187439 12.7201C0.0718014 13.2212 -0.0823816 13.5874 0.0525285 13.6452C0.148893 13.6837 0.26453 13.6645 0.380167 13.6645Z" fill="#0F0F0F"/>
<path id="Vector_6" fill-rule="evenodd" clip-rule="evenodd" d="M23.9702 65.0652C24.0473 65.0652 24.0087 64.8725 24.1629 63.9474C24.24 63.5427 24.3171 63.1187 24.4134 62.6754L25.9167 55.0433C26.8225 50.5528 26.0709 50.3408 31.6022 50.0902C32.2575 50.0902 32.5273 50.148 32.5466 50.0324C32.5659 49.936 32.6044 49.8204 32.6237 49.5313L18.169 49.6084C17.8221 49.6084 17.4559 49.5891 17.109 49.6084C16.5694 49.6277 16.4345 49.5699 16.3381 49.6084C16.3188 49.6277 16.3381 49.7048 16.3188 49.8397L16.3381 50.0902C17.4174 50.0902 20.4818 49.9939 21.0407 50.8611C21.1949 52.1717 19.6723 59.0907 19.1712 60.3241C18.0919 62.8874 15.7792 64.7761 12.2523 64.9496C4.8322 65.2965 6.45112 54.099 7.68459 48.664C8.97587 42.94 11.8283 36.021 16.7236 34.8068C21.9272 33.5348 25.1073 37.6978 26.0131 42.2076C26.3793 44.3084 26.148 47.1029 26.36 47.5655C26.572 47.5847 26.8418 47.6233 26.8418 47.4884C26.8418 47.2957 26.9382 46.9873 27.0731 46.1778L28.0946 41.0898C28.5186 38.8927 29.1353 36.5028 29.3858 34.3636L25.8204 38.9505C25.4156 38.5843 25.0494 37.7941 24.7218 37.3701C24.2785 36.7534 23.9316 36.2523 23.392 35.8283C22.332 34.9996 21.0214 34.4021 19.2098 34.2286C10.9032 33.4385 2.86637 41.6294 1.07399 50.5335C-1.7013 64.3329 10.2286 68.4765 17.8221 63.3885C18.9785 62.6176 19.7301 61.5383 21.5803 61.3456C24.4327 61.095 23.5847 63.986 23.5654 65.0267C23.5654 65.0845 23.8931 65.0652 23.9702 65.0652Z" fill="#0F0F0F"/>
<path id="Vector_7" fill-rule="evenodd" clip-rule="evenodd" d="M111.122 65.0845L121.838 65.0652C122.936 65.0074 123.129 65.2001 123.129 64.8147C123.129 64.7568 123.129 64.6797 123.129 64.5834C121.953 64.487 117.386 64.8725 119.062 60.2855C119.39 59.3412 121.78 54.7542 122.339 54.388H131.224C131.493 56.5273 132.688 61.6539 132.515 63.4463C131.995 64.4677 128.737 64.5448 127.543 64.5641C127.292 64.5641 126.521 64.5641 126.193 64.5641C126.001 64.5834 126.059 64.7761 126.059 65.0652H139.819C141.573 65.0459 141.438 65.2387 141.458 64.5063C140.436 64.4099 140.147 64.3907 139.55 64.1979C138.355 63.6583 138.162 60.3241 137.892 58.7244L135.136 42.4967C134.693 39.7599 134.057 36.8497 133.768 34.1708C132.862 34.1708 132.92 33.9781 132.515 34.5562L130.703 37.8326C126.926 44.5589 122.57 52.7498 118.754 59.1292C117.212 61.7117 115.362 64.1016 112.317 64.487C111.315 64.6027 111.006 64.3136 111.122 65.0845ZM122.609 53.8098L130.954 53.8291C131.127 52.7884 129.47 43.9229 129.219 42.1305C128.603 42.6316 127.889 44.2312 127.408 45.0792C126.54 46.6403 122.763 53.1546 122.609 53.8098Z" fill="#0F0F0F"/>
<path id="Vector_8" fill-rule="evenodd" clip-rule="evenodd" d="M0.630694 69.8641C0.669239 70.0183 0.630694 70.2303 0.649966 70.3267C0.669239 70.3845 0.823422 70.3652 0.996878 70.3652C1.57506 70.3845 2.80853 70.2881 4.52381 71.1554C5.60309 71.7914 6.43183 72.8514 6.79801 74.2969C7.22201 75.9736 7.1642 93.3192 6.79801 95.4392C6.18128 98.9469 3.92635 99.7949 0.669239 99.7756C0.611421 99.7756 0.630694 99.7949 0.611421 99.8334C0.592148 99.9105 0.592148 100.103 0.592148 100.354C0.727058 100.354 1.18961 100.354 1.9027 100.354C2.42307 100.354 3.05908 100.335 3.77217 100.335C4.87072 100.335 6.16201 100.335 7.45329 100.354C10.7875 100.431 13.9675 100.335 14.3915 100.335C14.3722 100.277 14.3915 100.18 14.3722 100.084C14.3722 99.7949 14.4108 99.7949 14.3722 99.8142C13.4857 99.9491 10.2093 99.6407 8.76384 97.752C7.14492 95.2079 7.72311 86.5352 7.72311 82.9311C7.72311 80.6184 7.53038 77.2264 7.78093 75.0485C8.20493 75.1449 8.66748 75.9351 8.97585 76.3591L25.936 98.9276C27.1502 100.527 26.7647 100.412 28.2294 100.431C28.3644 94.3599 28.2487 88.1541 28.2487 82.0831C28.2487 76.8216 27.9789 73.2754 29.8291 71.5409C30.6193 70.8085 31.7178 70.3652 33.5102 70.3267C34.416 70.3074 34.2233 70.5387 34.2233 69.8641C33.9728 69.7678 30.6386 69.8063 27.3622 69.8063C24.1821 69.8063 21.0599 69.7678 20.8287 69.8641C20.8094 69.9412 20.8094 70.0183 20.8094 70.0954C20.8094 70.1918 20.7708 70.3267 20.8479 70.3459C21.9465 70.4809 27.2851 69.3438 27.5356 77.3227C27.5549 80.098 27.6513 89.5995 27.4971 91.7388C26.3985 91.2185 12.7533 72.3503 10.3442 69.7678C8.97585 69.7678 1.38234 69.8256 0.630694 69.8641Z" fill="#0F0F0F"/>
<path id="Vector_9" fill-rule="evenodd" clip-rule="evenodd" d="M31.5444 1.15637C31.5251 1.52256 32.5466 0.848006 33.144 1.81165C33.5295 2.58256 32.3539 7.32369 32.1611 8.34515L28.7113 25.7293C27.8247 30.1235 28.4607 30.0849 23.9316 30.2199C23.0836 30.2391 23.2571 30.0849 23.0836 30.7017C25.2614 30.7595 27.8633 30.798 30.388 30.7788C32.2768 30.7595 34.127 30.7402 35.7073 30.7788C35.7459 30.5282 35.7652 30.2777 35.6881 30.2777C34.5124 30.2006 33.2982 30.3933 32.8742 29.8151C32.2382 28.9286 32.6044 26.3075 34.763 18.2321C35.7459 15.5147 38.2899 10.6001 41.5663 11.0626C43.7827 11.371 43.3779 14.0114 43.0118 15.9579L40.6605 27.7144C40.4485 28.8322 40.5448 29.6031 39.3692 30.0079C38.3284 30.3162 36.6517 30.3548 36.3626 30.3355C36.3433 30.3355 36.3433 30.4319 36.3433 30.509C36.3626 30.7595 36.3433 30.586 36.3433 30.7402H47.3867C48.0805 30.7402 48.4082 30.7402 48.5238 30.721C48.5816 30.721 48.5431 30.5475 48.5431 30.297C47.83 30.2777 45.4594 30.3355 44.9969 29.6224C44.303 28.0998 48.5238 15.9194 47.2711 12.9514C46.77 11.7757 45.9412 11.1397 44.5536 10.7543C40.2172 9.55934 36.8059 11.7757 35.2062 15.8616L38.2706 0C37.7117 0.0963643 36.4975 0.173456 35.2062 0.250547C34.0884 0.308366 32.5466 0.385457 31.7178 0.481822C31.4866 0.501095 31.5829 0.751642 31.5444 1.15637Z" fill="#0F0F0F"/>
<path id="Vector_10" fill-rule="evenodd" clip-rule="evenodd" d="M31.1397 35.0381C31.7564 35.0766 33.491 35.1152 34.2811 35.1537C34.8015 35.2116 36.7481 35.3657 37.0757 35.8861C37.4804 36.5028 32.9513 57.8764 32.2382 61.519C31.8528 63.4849 31.9491 63.8896 29.8677 64.2172C28.4607 64.6027 26.3215 64.5641 25.3 64.5641C25.2036 64.5641 25.2036 64.6605 25.2036 64.7761C25.2036 65.1809 25.1651 65.046 26.8225 65.0652L56.0595 65.0074C56.3486 62.6947 57.0231 59.9772 57.505 57.5874C57.5242 56.9899 59.0661 51.0731 58.8733 50.4949C58.6035 50.4949 58.3915 50.4949 58.2759 50.4949C58.1795 50.4949 58.1217 51.1309 57.9675 51.7862C56.4257 58.127 52.9373 63.3307 45.9991 64.2558C44.0332 64.5063 39.4848 64.622 37.943 63.6776C37.6924 62.579 42.0096 41.4174 42.8576 37.5243C43.3972 35.1537 44.6114 35.2886 48.254 35.1345C49.6802 35.173 50.4125 35.173 50.5667 35.1152C50.586 35.0959 50.5667 34.6719 50.5667 34.6141C50.5475 34.5177 50.2584 34.5755 49.8729 34.5563C49.4874 34.5563 48.9671 34.5563 48.4082 34.5755H33.279C30.9855 34.6334 31.1397 34.4021 31.1397 34.7683C31.1397 34.8646 31.1397 34.9225 31.1397 35.0381Z" fill="#0F0F0F"/>
<path id="Vector_11" fill-rule="evenodd" clip-rule="evenodd" d="M145.177 35.0573C145.833 35.1537 149.668 35.0188 150.786 35.6548C150.978 35.7897 150.959 35.7897 151.075 35.9053C151.422 36.4643 147.394 55.7179 146.738 58.975C145.794 64.063 145.871 64.0437 143.867 64.275C142.903 64.4677 143.154 63.9859 143.096 64.9881C143.115 65.123 143.192 65.0652 144.541 65.0652L156.452 65.0074C160.942 65.0074 165.568 65.1037 170.039 64.9881C170.232 63.6776 172.564 50.4564 172.892 50.4949C172.911 50.4949 172.448 50.4949 172.313 50.4949C172.101 50.4756 172.217 51.844 171.485 53.5208C171.119 54.6579 170.733 55.66 170.232 56.6815C169.153 58.8786 167.881 60.4012 166.262 61.6924C164.72 62.9259 162.504 63.9281 160.017 64.2557C158.032 64.5063 153.484 64.6219 151.923 63.6968C151.691 62.6561 156.009 41.3403 156.837 37.5243C157.377 35.2693 159.478 35.3657 161.347 35.1344C162.87 34.961 164.296 35.1344 164.489 35.0766C164.566 35.0573 164.527 34.9802 164.546 34.9032C164.546 34.8261 164.546 34.7297 164.546 34.6719C164.566 34.4984 159.516 34.749 155.469 34.6333C152.751 34.5562 150.362 34.537 149.822 34.5177L146.064 34.5755C145.37 34.5948 145.177 34.5562 145.177 34.5948C145.177 34.6526 145.177 34.7875 145.177 35.0573Z" fill="#0F0F0F"/>
<path id="Vector_12" fill-rule="evenodd" clip-rule="evenodd" d="M155.006 90.3126C154.775 93.7625 155.026 99.6407 155.026 100.72C156.066 99.6021 157.011 98.176 157.974 96.9232C158.861 97.8483 159.42 98.5421 160.615 99.2552C160.827 99.3901 161.058 99.4865 161.328 99.5829C162.831 100.296 164.566 100.72 166.281 100.739C169.538 100.778 172.795 99.4865 174.645 96.557C176.284 93.9745 176.457 89.4453 175.05 86.5544C172.39 81.158 162.812 82.3722 158.379 78.6333C155.623 76.3205 156.124 72.4274 159.208 70.7507C164.893 67.6863 171.215 72.4274 172.583 78.4984C172.699 79.1536 172.776 79.4235 172.718 79.674C172.699 79.7318 172.988 79.7125 173.2 79.6933C173.296 79.0187 173.239 70.847 173.2 69.4979C172.525 69.8448 172.294 70.1339 171.716 70.6928C171.215 71.1747 170.772 71.5023 170.213 72.0419C169.596 71.7914 168.902 71.2325 168.324 70.8663C167.669 70.4616 167.129 70.1532 166.242 69.9027C154.64 66.4528 149.938 79.9438 156.722 84.5115C161.559 87.7686 171.562 87.3831 172.93 93.2228C173.797 96.9039 170.714 99.8334 167.572 100.161C165.722 100.508 163.641 100.142 162.118 99.3901C157.473 97.2894 155.353 88.7708 155.585 87.653C155.604 87.5951 155.141 87.6722 155.045 87.6722C154.949 87.653 155.122 88.3853 155.006 90.3126Z" fill="#0F0F0F"/>
<path id="Vector_13" fill-rule="evenodd" clip-rule="evenodd" d="M65.1755 23.0888C65.137 23.0888 65.0984 23.0888 65.0599 23.0888C64.9828 23.0888 64.925 23.0695 64.9057 23.1466C64.7901 23.6092 64.5974 24.4765 64.0577 25.6328C61.6486 30.374 54.19 32.9565 53.1107 27.6565C52.8024 26.0761 53.0144 24.1103 53.2649 22.4914C53.4769 21.0652 53.3613 21.1037 53.8045 20.9688H65.6574C68.8374 6.30215 52.4747 8.15235 48.9478 19.6968C48.1383 22.3372 47.9071 25.2474 49.2947 27.5601C50.3354 29.2947 52.1856 30.9907 55.0187 31.1256C57.8711 31.2605 60.3188 30.2583 61.957 28.8129C62.805 28.0612 63.4217 27.4445 64.077 26.3459C64.4239 25.787 65.4454 23.9946 65.3104 23.1274C65.2912 23.0695 65.2334 23.0888 65.1755 23.0888ZM53.6889 20.3328L61.7642 20.3713C62.2268 17.2491 63.9613 9.53999 58.6613 11.2746C55.5391 12.296 54.1515 17.2877 53.6889 20.3328Z" fill="#0F0F0F"/>
</g>
</svg>
