<svg width="176" height="28" viewBox="0 0 176 28" fill="none" xmlns="http://www.w3.org/2000/svg">
<g id="virtuoso-logo-horizontal-bob 1">
<g id="Group">
<path id="fullLogo" d="M7.74578 18.4977C7.74578 18.4536 7.79017 18.4536 7.79017 18.4095C7.85675 18.1229 7.70139 18.4977 7.74578 18.4977Z" fill="#B4C8D0"/>
<path id="fullLogo-2" d="M9.14404 19.3575C9.18843 19.3134 9.14404 19.3134 9.14404 19.2693C9.14404 19.3134 9.14404 19.3134 9.14404 19.3575Z" fill="#B4C8D0"/>
<path id="fullLogo-3" d="M9.23279 19.3575C9.23279 19.3134 9.27718 19.3134 9.27718 19.2693C9.23279 19.3134 9.23279 19.3134 9.23279 19.3575Z" fill="#B4C8D0"/>
<path id="fullLogo-4" d="M7.85682 21.7827C7.76804 21.7827 7.67926 21.7386 7.63487 21.7386C7.59049 21.7827 7.5461 21.8268 7.50171 21.8268C7.50171 21.915 7.59049 21.9591 7.59049 22.0032C7.67926 22.0032 7.76804 22.0472 7.81243 22.0472C7.81243 22.0032 7.81243 22.0032 7.81243 21.9591C7.81243 21.915 7.79023 21.8268 7.85682 21.7827Z" fill="#B4C8D0"/>
<path id="fullLogo-5" d="M8.38945 24.1637C8.34506 24.1637 8.25628 24.0756 8.21189 24.1637C8.1675 24.1197 8.12312 24.0756 8.07873 24.0756C8.03434 24.0756 7.98995 24.0756 7.94556 24.0315C7.85679 23.8992 7.52387 24.1197 7.52387 24.1197C7.61265 24.3401 7.25754 24.1197 7.14657 24.2519C7.05779 24.1197 6.92463 24.3842 6.88024 24.2078C6.79146 24.296 6.70269 24.3401 6.61391 24.4283C6.43636 24.3401 6.61391 24.5606 6.43636 24.4724C6.01467 24.6929 6.2588 25.1559 5.79272 25.3763C5.79272 25.4204 5.79272 25.5086 5.83711 25.5527C6.05905 25.5968 6.10344 25.8173 6.10344 25.9716C6.36977 26.1039 6.23661 26.4787 6.52513 26.5669C6.48074 26.9417 6.70269 26.3905 6.79146 26.7433C7.05779 26.8315 6.70269 26.9637 6.79146 27.1622C6.83585 27.2063 7.01341 27.2945 6.92463 27.1622C7.19096 27.4929 6.96902 26.8976 7.19096 26.9417C7.19096 26.8976 7.23535 26.8976 7.19096 26.8535C7.4129 26.8094 7.45729 26.9858 7.52387 26.9417C7.56826 26.9858 7.65704 26.7212 7.70143 26.5669C7.70143 26.611 7.74581 26.6992 7.83459 26.611C7.7902 26.4787 8.30067 26.2803 8.05653 26.1921C8.43383 26.0157 8.01214 25.6409 8.32286 25.4645C8.36725 25.5527 8.45603 25.3763 8.54481 25.3763C8.58919 25.2 8.41164 25.1559 8.41164 24.9574C8.58919 24.759 8.30067 24.4724 8.38945 24.1637Z" fill="#97B7C5"/>
<path id="fullLogo-6" d="M14.6482 1.52125C14.3819 1.74173 14.6039 1.34488 14.4707 1.30078C14.049 1.67558 13.7383 2.11653 13.4054 2.57952C12.2513 4.45354 11.2969 6.37165 10.4979 8.42204C10.3648 8.68661 9.98746 9.23779 9.25506 11.7953C8.47826 14.7276 7.9234 17.7039 7.5461 20.6583C7.45733 21.1653 7.41294 21.6283 7.41294 22.1134C7.50171 22.1575 7.41294 22.3339 7.36855 22.3339C7.32416 22.4661 7.23538 22.6646 7.36855 22.7527C7.50171 22.6646 7.36855 22.7087 7.36855 22.6205C7.36855 22.5764 7.41294 22.5323 7.45733 22.4882C7.41294 22.2677 7.50171 22.2236 7.59049 22.1575C7.67927 22.0252 7.50171 21.937 7.50171 21.7827C7.76804 21.6504 7.67927 21.5181 7.76804 21.2315C7.85682 21.1433 7.98999 21.2756 7.90121 21.4079C8.03437 21.6283 7.72366 21.6724 7.81243 21.915C7.81243 22.0472 7.67927 22.1795 7.67927 22.3339C7.72366 22.4661 7.81243 22.2898 7.81243 22.2457C7.90121 22.2016 8.58923 19.9968 8.63362 19.9087C8.7224 19.8205 8.67801 19.7323 8.7224 19.7323C8.7224 19.6882 8.67801 19.7323 8.63362 19.6882C8.7224 19.6441 8.58923 19.4236 8.7224 19.5559C8.81117 19.5118 8.63362 19.2252 8.81117 19.1811C8.7224 18.9165 9.03311 18.674 8.94434 18.4094C8.94434 18.8724 8.89995 19.3795 8.81117 19.8205C8.94434 19.7323 8.85556 19.6441 8.94434 19.6441C8.85556 19.3795 9.03311 19.3795 9.03311 19.2252C9.0775 19.1811 8.94434 19.137 9.03311 19.0929C9.12189 19.0929 9.0775 19.0929 9.03311 19.0488C9.16628 18.8724 9.58797 16.9543 9.80991 16.2709C10.0319 15.5433 12.7617 7.95905 13.0725 7.45196C13.4498 6.68031 13.6717 5.88661 14.049 5.11495C14.0934 5.02677 14.1378 4.93858 14.1822 4.89448C14.2266 4.85039 14.1822 4.89448 14.049 4.93858C14.1378 4.67401 14.4707 4.12283 14.3819 4.12283C14.3375 4.21102 14.2931 4.25511 14.2488 4.29921C14.2488 4.12283 14.4263 3.88031 14.3819 3.70393C14.5595 3.43936 14.3819 3.10866 14.5595 2.84409C14.4707 2.84409 14.4263 2.7559 14.4707 2.66771C14.4707 2.62362 14.6926 2.29291 14.5151 2.40314C14.5151 2.22677 14.737 2.07243 14.6926 1.89606C14.6039 1.85196 14.8036 1.60944 14.6482 1.52125Z" fill="#97B7C5"/>
<path id="fullLogo-7" d="M18.1105 13.3165C17.2449 12.4126 16.1796 11.6189 15.0255 11.0236C15.6247 10.6929 16.1796 10.296 16.6013 9.74486C17.2893 10.2079 18.5322 10.9795 18.6654 12.0378C18.7541 12.5008 18.5322 13.0079 18.1105 13.3165ZM18.2437 16.1606C17.9108 16.7559 17.4225 17.263 16.8232 17.4834C16.6457 16.5134 16.1352 15.6094 15.4028 15.0142C16.1796 14.8378 16.9786 14.5512 17.6666 14.1984C18.1105 14.7055 18.5766 15.4331 18.2437 16.1606ZM16.002 18.9386C15.536 19.4897 14.9367 19.8425 14.2487 20.085C14.3375 19.5338 14.1599 18.9386 13.827 18.4756C14.6482 18.4315 15.4916 18.2992 16.2684 18.0567C16.2684 18.4094 16.1796 18.674 16.002 18.9386ZM13.5163 18.1228C11.8073 16.5134 9.05527 15.5212 7.43509 15.1905C5.28225 14.8157 3.52891 14.8598 2.24165 15.6094C1.55363 15.1905 0.62147 14.5071 0.821218 13.6913C1.19852 12.8756 2.33042 12.8315 2.33042 12.8315C2.33042 12.8315 4.30571 14.1102 8.12311 14.8819C8.21189 14.926 8.34505 14.926 8.45602 14.926C8.45602 14.8819 8.50041 14.7496 8.5448 14.5953C6.56952 14.1764 4.63862 13.537 2.7965 12.6771C4.68301 12.3023 6.74707 12.589 8.58919 13.0079C10.3425 13.4268 12.0515 14.0661 13.6051 14.926C12.5398 14.9701 11.4522 14.9701 10.3869 14.8819C10.3425 14.9701 10.2981 15.1023 10.2981 15.2126C11.5854 15.389 12.8727 15.389 14.1599 15.2126C14.9811 15.7197 16.1352 16.6236 16.2684 17.6819C15.4028 17.9464 14.4263 18.0787 13.5163 18.1228ZM1.08755 10.9354C1.08755 10.4283 1.42046 9.96534 1.90873 9.83305C2.33042 9.65667 2.77431 9.50234 3.24039 9.50234C3.50672 9.72282 3.79524 9.96534 4.06157 10.1417C5.17128 10.8693 7.23534 11.5086 9.16624 11.7953C9.21062 11.7071 9.25501 11.5748 9.25501 11.4645C8.65577 11.3764 8.05653 11.2441 7.27973 11.0457C5.99247 10.7149 4.79398 10.1858 3.68427 9.39211C6.90243 9.0173 9.98742 9.89919 12.8061 11.0016L13.3166 11.222C12.7173 11.3984 12.1181 11.5527 11.5188 11.5527C11.5188 11.5968 11.3857 11.9275 11.3857 11.9275C12.2068 11.8834 13.0946 11.7512 13.8714 11.4645C13.9158 11.4645 15.1143 12.148 15.5804 12.4346C16.224 12.8094 16.8232 13.2504 17.3337 13.7575C16.5569 14.1764 15.7579 14.485 14.8923 14.6173C12.7173 13.052 9.6767 12.2803 7.98994 11.9055C6.28099 11.5307 3.61769 11.3984 1.81996 11.9496C1.48704 11.7732 1.17633 11.3984 1.08755 10.9354ZM3.10722 7.82675C3.44013 7.0551 5.26006 6.81258 6.05905 6.76849C6.39196 6.76849 7.16876 6.76849 7.16876 6.76849C7.21315 6.85667 7.25753 6.98896 7.34631 7.09919C8.03433 8.00313 9.36598 8.46612 10.3869 8.66455C10.4313 8.62045 10.4313 8.57636 10.4313 8.53227C9.45476 8.31179 8.1675 7.80471 7.67922 6.83463C10.7198 7.01101 13.6717 7.98108 16.2462 9.52439C15.8689 10.1197 15.2696 10.5386 14.626 10.8031C14.0268 10.5386 11.4522 9.30392 9.23282 8.88502C7.0134 8.46612 4.90495 8.33384 3.28477 8.66455L3.15161 8.70864C2.97406 8.37793 2.97406 8.06927 3.10722 7.82675ZM10.0984 4.96061C12.9614 5.0488 15.9355 6.41573 16.4459 8.53227C13.9158 7.03305 11.0527 6.10707 8.12311 5.8425C7.98994 5.8425 7.85678 5.8425 7.74581 5.8425C8.1675 5.0488 9.63231 4.96061 10.0984 4.96061ZM19.2202 12.4126C19.7307 10.8472 18.1549 9.67872 16.9564 8.88502C17.0008 8.46612 16.9564 8.06927 16.8232 7.65038C16.0908 5.95274 14.0046 4.71809 11.9849 4.27715C11.763 4.23305 11.4744 4.18896 11.2081 4.14486C10.8308 4.10077 10.5201 4.10077 10.1428 4.10077C8.94429 4.14486 7.56825 4.56376 7.14656 5.79841C5.77052 5.8866 4.01718 5.8866 3.04064 6.94486C2.53017 7.40786 2.39701 8.13541 2.70772 8.77479C1.84215 9.03935 0.688053 9.54644 0.554887 10.6047C0.510499 11.2882 1.02097 11.7071 1.46485 12.2142C1.33168 12.2583 1.24291 12.3464 1.08755 12.4346C0.665858 12.6992 0.266363 13.074 0.266363 13.6693C0.244169 14.7055 1.22071 15.389 1.95312 15.874C1.68679 16.0945 1.48704 16.3811 1.48704 16.7338C1.44266 18.189 2.77431 18.8283 3.70646 19.4677C4.3501 20.9228 5.97027 21.6724 7.34631 21.9811C7.34631 21.8929 7.34631 21.7165 7.34631 21.6504C6.05905 21.2756 4.63862 20.5921 4.12815 19.6C5.19348 20.1071 6.28099 20.5039 7.43509 20.7905C7.47948 20.7023 7.47948 20.526 7.47948 20.4157C6.32538 20.1512 5.17128 19.7323 4.12815 19.2252C4.26132 18.5858 4.94934 18.4535 5.74833 18.4976C6.6139 18.5858 7.54606 18.7622 8.36725 19.0488C9.05527 19.2693 9.78767 19.7323 9.78767 20.063C9.78767 20.2394 9.65451 20.3937 9.45476 20.4378C9.49915 20.5701 9.6767 20.526 9.87645 20.4819C10.2094 20.3937 10.3425 20.0189 10.2538 19.7102C10.2538 19.6661 10.2538 19.6661 10.2094 19.6661C9.54354 18.5417 7.3907 17.9023 6.05905 17.8583C5.59297 17.8583 5.14909 17.9023 4.68301 17.9905C4.21693 18.0787 3.86182 18.4094 3.66208 18.8063L3.61769 19.0268C2.7965 18.5197 1.90873 17.8803 1.81996 17.1086C1.77557 16.7118 1.99751 16.337 2.37481 16.1606C2.37481 16.1606 2.75211 16.337 3.75085 16.7559C5.0825 17.263 6.41416 17.6598 7.7902 17.9464C7.7902 17.8142 7.83458 17.6819 7.87897 17.5275C7.7902 17.5275 7.74581 17.4834 7.65703 17.4394C5.99247 17.1086 4.43887 16.6236 2.90747 15.9401C2.95186 15.9401 3.24039 15.852 3.41794 15.852C4.92714 15.6315 6.50293 15.7638 8.01214 16.2268C9.58793 16.6457 11.0527 17.285 12.4288 18.1449C11.4079 18.1449 10.4091 18.0567 9.43257 17.8803C9.38818 17.9685 9.34379 18.1449 9.34379 18.2551C10.4979 18.4315 11.6964 18.5858 12.8505 18.5858C13.3609 19.0488 13.6273 19.6882 13.6717 20.3275C12.1625 20.8346 10.964 21.011 8.38944 20.6583C8.34505 20.7464 8.30066 20.8787 8.30066 20.989C8.38944 20.989 8.56699 21.0331 8.67796 21.0331C10.0984 21.2094 11.763 21.3638 13.4275 20.8126C12.2734 22.0472 9.92084 22.0472 8.50041 21.9149C8.36725 21.9149 8.1675 21.8708 8.03433 21.8708C7.98994 21.959 7.98994 22.0472 7.94556 22.1354C8.21189 22.1795 8.50041 22.2236 8.76674 22.2677C10.0096 22.4 13.0502 22.3559 14.2487 20.526C15.4028 20.063 16.7788 19.3795 16.912 17.9685C17.7332 17.5496 18.7097 16.822 18.9317 15.9181C19.0648 15.1464 18.9317 14.3086 18.4212 13.6252C18.7541 13.3165 19.0648 12.8756 19.2202 12.4126Z" fill="#6791B0"/>
<path id="fullLogo-8" d="M47.5178 5.00473C46.5413 5.09291 45.6313 5.13701 44.6548 5.13701C43.5895 5.13701 42.5907 5.09291 41.5254 5.00473C41.4366 4.96063 41.3035 5.00473 41.1925 5.09291C41.1481 5.13701 41.1481 5.2252 41.1481 5.26929C41.2369 5.40158 41.3257 5.44567 41.4144 5.44567C42.5241 5.62205 43.0346 5.86457 43.2566 6.17323C43.3897 6.3937 43.3897 6.7685 43.2566 7.31969C42.7017 9.45827 40.9484 13.1181 39.6611 15.7858C39.1062 16.8882 38.6402 17.8803 38.3738 18.5197C37.9077 17.4173 36.5761 14.3528 35.3776 11.6189C34.4011 9.41417 33.4911 7.36378 33.4467 7.1874C33.2692 6.8126 33.2692 6.37165 33.4467 5.99685C33.6243 5.66614 34.046 5.48976 34.734 5.44567C35.0003 5.40158 35.0669 5.26929 35.0669 5.1811C35.0669 5.09291 34.9337 4.96063 34.6896 5.00473C33.7796 5.04882 32.1151 5.09291 31.5602 5.09291C31.0054 5.09291 29.5849 5.04882 28.564 5.00473C28.3421 5.00473 28.2311 5.09291 28.2311 5.2252C28.2311 5.31339 28.3199 5.44567 28.564 5.48976C29.6737 5.57795 30.3173 6.12913 30.961 7.49606C31.427 8.4 35.5108 18.0567 36.11 19.5118C36.3764 20.1512 36.5761 20.6142 36.7537 20.9669C36.9312 21.3858 37.131 21.7827 37.2641 22.2016C37.2641 22.2898 37.3085 22.3339 37.3529 22.378C37.3973 22.4221 37.4417 22.422 37.4861 22.422C37.5304 22.422 37.5748 22.4221 37.6192 22.378C37.708 22.3339 37.708 22.2457 37.708 22.2016C37.9743 21.2976 38.3072 20.4157 38.6845 19.5559C39.7943 17.0425 41.4366 13.7134 42.7239 11.0016C43.3675 9.67874 43.9224 8.48819 44.2997 7.80473C45.2096 5.84252 45.9642 5.71024 47.2071 5.46772L47.4734 5.42362C47.651 5.37953 47.7398 5.24724 47.6954 5.15906C47.8507 5.09291 47.6954 5.00473 47.5178 5.00473Z" fill="#545454"/>
<path id="fullLogo-9" d="M55.2414 17.3953V13.052C55.2414 9.48031 55.3746 9.48031 56.5287 9.21574C56.6618 9.21574 56.7506 9.08346 56.7506 8.99527C56.7506 8.90708 56.6618 8.81889 56.4843 8.86299C55.7963 8.95117 55.1083 8.99527 54.3758 9.03936C53.6878 9.03936 53.0442 8.95117 52.4006 8.86299C52.3118 8.86299 52.223 8.86299 52.1342 8.95117C52.0898 8.99527 52.0898 9.08346 52.0898 9.12755C52.1342 9.21574 52.223 9.25984 52.3118 9.25984C53.4215 9.43621 53.5103 9.43621 53.5103 13.0961V17.3953C53.5103 21.3197 53.3327 21.3638 52.3118 21.5181C52.223 21.5181 52.1342 21.6063 52.1342 21.7386C52.1786 21.8709 52.2674 21.959 52.4006 21.915C53.0442 21.8268 53.7322 21.8268 54.3758 21.8268C54.7088 21.8268 55.7963 21.8709 56.5287 21.915H56.5731C56.6618 21.915 56.7062 21.8709 56.7506 21.8268C56.795 21.7827 56.795 21.6945 56.795 21.6504C56.7506 21.5622 56.7062 21.5181 56.6175 21.5181C55.5299 21.3638 55.2414 21.1874 55.2414 17.3953Z" fill="#545454"/>
<path id="fullLogo-10" d="M77.2136 21.1874C77.0805 21.3197 76.8363 21.4078 76.6144 21.4078C75.5491 21.4078 73.2631 18.211 71.6429 15.1905C73.3074 14.6834 74.2174 13.5811 74.2174 12.126C74.2174 9.92123 72.6416 8.68658 69.8895 8.68658H69.7564C69.4235 8.68658 69.024 8.73068 68.5579 8.73068C68.0918 8.77477 67.6923 8.77477 67.4482 8.77477C66.9821 8.77477 66.4716 8.77477 66.0277 8.73068C65.8946 8.73068 65.8058 8.77477 65.7614 8.90706C65.7614 8.99525 65.8058 9.12753 65.9834 9.12753C66.7602 9.25981 67.0043 9.30391 67.0043 13.0078V17.3512C67.0043 21.2756 66.9155 21.3637 65.8058 21.474C65.6726 21.474 65.5839 21.5622 65.5839 21.6945C65.5839 21.8267 65.717 21.8708 65.8058 21.8708C65.8058 21.8708 65.8058 21.8708 65.8502 21.8708C66.5382 21.8267 67.4704 21.7826 67.8255 21.7826C68.2916 21.7826 69.1127 21.8267 69.9783 21.8708C70.0227 21.8708 70.1115 21.8708 70.1559 21.8267C70.2446 21.7826 70.289 21.6504 70.2003 21.5622C70.2003 21.5622 70.2003 21.5181 70.1559 21.5181C70.1115 21.474 70.0671 21.474 70.0227 21.474C68.913 21.3417 68.6911 21.2094 68.6911 17.3512V15.433C68.8686 15.4771 69.1127 15.4771 69.2903 15.4771C69.4679 15.4771 69.6232 15.4771 69.7564 15.4771C72.5085 20.3716 73.6626 21.959 76.0151 21.959C76.57 21.959 77.0805 21.8267 77.48 21.4519C77.6131 21.3197 77.6131 21.1874 77.5687 21.1212C77.5243 21.0992 77.3912 21.0992 77.2136 21.1874ZM72.4197 12.2362C72.4197 14.1102 71.3544 15.0141 69.3347 15.0141C69.1127 15.0141 68.913 15.0141 68.6911 14.97V11.9055C68.6911 11.7291 68.6911 11.4866 68.6911 11.2661C68.6911 10.5386 68.691 9.70076 68.6467 9.25981C69.0683 9.21572 69.4678 9.17162 69.8895 9.17162H70.0227C71.6873 9.21572 72.4197 10.1637 72.4197 12.2362Z" fill="#545454"/>
<path id="fullLogo-11" d="M93.2601 8.79684C92.5721 8.88503 91.1073 8.97322 90.4636 9.01731C89.9975 9.06141 89.1764 9.06141 88.7991 9.06141H88.5327C88.2664 9.06141 87.8003 9.06141 87.5118 9.06141H87.3342C87.2899 9.06141 87.2011 9.06141 87.1123 9.06141C86.7794 9.06141 86.1358 9.01731 85.6031 9.01731C84.7819 9.01731 83.9385 8.92912 83.1617 8.75275C83.073 8.66456 82.9842 8.66456 82.8954 8.70865C82.8066 8.75275 82.7622 8.84093 82.8066 8.97322C82.8066 9.87716 82.7178 10.8031 82.5847 11.7071C82.5403 11.8835 82.6291 11.9716 82.7178 12.0378C82.851 12.0378 82.9398 11.9496 82.9842 11.8614C83.4946 9.9433 84.2271 9.61259 85.6475 9.56849H86.1579C86.5796 9.56849 86.9791 9.56849 87.2233 9.5244C87.2677 10.1638 87.2233 13.4047 87.2233 15.5653C87.2233 16.337 87.2233 16.9764 87.2233 17.3953C87.2233 21.2315 87.0013 21.2756 85.5587 21.5181C85.4255 21.5181 85.3812 21.6504 85.3812 21.7386C85.4255 21.8709 85.5143 21.915 85.6475 21.915C86.4243 21.8268 87.2677 21.7827 88.0445 21.7827C88.4218 21.7827 89.8866 21.8268 90.5746 21.915C90.6634 21.915 90.7078 21.915 90.7965 21.8268C90.8409 21.7827 90.8409 21.6945 90.8409 21.6063C90.7965 21.5181 90.7521 21.474 90.6634 21.474C89.0876 21.2094 88.91 21.2094 88.91 17.3953C88.91 17.1307 88.91 16.7118 88.91 16.2047C88.91 14 88.91 10.4504 88.9544 9.4803C89.5093 9.4803 90.1085 9.4803 90.5302 9.5244C92.1504 9.61259 92.9716 10.0315 93.0603 12.0378C93.0603 12.2142 93.1935 12.3024 93.2823 12.3024C93.3711 12.3024 93.4598 12.2142 93.4598 12.0378C93.4598 11.0236 93.5486 10.0756 93.6374 9.06141C93.7262 8.97322 93.6818 8.84093 93.593 8.7307C93.4598 8.70865 93.3489 8.70865 93.2601 8.79684Z" fill="#545454"/>
<path id="fullLogo-12" d="M127.461 8.57635C127.284 8.57635 127.04 8.57635 126.862 8.62045H126.818H126.729H126.64C123.267 9.0173 120.736 11.9055 120.736 15.2787C120.736 18.9827 123.91 21.959 127.772 21.959C128.105 21.959 128.371 21.9149 128.682 21.8708H128.815C132.078 21.3197 134.519 18.5417 134.519 15.2346C134.497 11.5968 131.323 8.57635 127.461 8.57635ZM126.818 9.12754H126.951C127.04 9.12754 127.173 9.12754 127.284 9.12754C130.147 9.12754 132.677 12.4567 132.677 16.3149C132.766 18.696 131.212 20.7905 128.904 21.4299L128.771 21.474C128.549 21.5181 128.26 21.5181 128.038 21.5181C125.087 21.5181 122.645 18.3212 122.645 14.3968C122.645 11.2441 124.754 9.50234 126.751 9.23777L126.818 9.12754Z" fill="#545454"/>
<path id="fullLogo-13" d="M147.125 14.7496C146.704 14.5291 145.749 13.9779 145.372 13.6913C144.506 13.1842 143.996 12.3244 143.996 11.3102C143.907 10.4945 144.418 9.70076 145.15 9.3921L145.194 9.34801C145.572 9.25982 145.971 9.17163 146.349 9.17163C147.924 9.17163 148.368 10.3181 148.746 11.5086C148.746 11.5968 148.834 11.685 148.923 11.7291C148.967 11.7291 149.056 11.7291 149.101 11.685C149.145 11.5968 149.189 11.5086 149.145 11.4204C149.056 10.6929 148.923 9.17163 148.923 9.12754C148.967 8.99525 148.923 8.86297 148.79 8.79683C148.701 8.79683 148.657 8.79683 148.612 8.84092C148.013 8.66454 147.369 8.57635 146.726 8.57635C146.127 8.57635 145.527 8.66454 144.973 8.95116L144.928 8.99525C144.018 9.41415 142.576 10.6488 142.576 12.2803C142.576 13.5149 143.264 14.5732 144.551 15.389C144.928 15.6094 145.616 16.0283 145.971 16.2047C147.347 16.9764 147.902 17.8582 147.902 19.137C147.991 19.9527 147.525 20.7464 146.792 21.0992L146.704 21.1433C146.149 21.3197 145.594 21.474 144.995 21.474C143.108 21.474 142.465 20.2393 141.998 18.3653C141.954 18.189 141.821 18.189 141.777 18.189C141.688 18.189 141.643 18.2771 141.599 18.3212V18.4094C141.599 18.4976 141.821 20.4157 141.932 21.1874C141.888 21.2756 141.888 21.3197 141.932 21.4079C141.976 21.496 142.065 21.5401 142.154 21.496C142.198 21.496 142.243 21.4519 142.287 21.4519C143.153 21.8267 144.085 21.959 144.995 21.8708C145.594 21.8708 146.238 21.7386 146.792 21.5401L146.881 21.496C149.234 20.4819 149.456 18.7181 149.456 17.9685C149.456 16.7559 148.635 15.5653 147.125 14.7496Z" fill="#545454"/>
<path id="fullLogo-14" d="M163.682 8.57635C163.505 8.57635 163.261 8.57635 163.083 8.62045H163.039H162.95H162.861C159.51 9.03935 156.98 11.9055 156.98 15.3008C156.98 19.0047 160.153 21.9811 164.015 21.9811C164.348 21.9811 164.614 21.937 164.925 21.8929H165.058C168.321 21.3417 170.762 18.5638 170.762 15.2567C170.718 11.5968 167.588 8.57635 163.682 8.57635ZM164.925 21.3638C164.703 21.4079 164.415 21.4519 164.193 21.4078C161.241 21.4078 158.8 18.211 158.8 14.2866C158.8 11.1338 160.908 9.3921 162.905 9.12754H162.994H163.083C163.172 9.12754 163.305 9.12754 163.416 9.12754C166.279 9.12754 168.809 12.4567 168.809 16.3149C168.898 18.696 167.344 20.7905 165.036 21.4299L164.925 21.3638Z" fill="#545454"/>
<path id="fullLogo-15" d="M114.3 8.88501C113.568 8.97319 112.924 9.01729 112.325 9.01729C111.637 9.01729 110.904 8.97319 110.305 8.88501C110.216 8.88501 110.128 8.88501 110.083 8.97319C110.039 9.01729 110.039 9.10548 110.083 9.14957C110.128 9.23776 110.216 9.28186 110.305 9.28186C111.592 9.45823 111.925 9.78894 112.014 12.3464C112.014 12.6771 112.014 13.3165 112.014 13.3165V13.4047C112.014 13.7354 112.014 13.9559 112.014 14.2204C112.014 14.8157 112.014 15.411 112.014 16.7779C112.059 18.1008 111.548 19.3795 110.594 20.3496C109.861 21.1212 108.84 21.5401 107.797 21.5842H107.753C106.554 21.5842 103.758 21.1653 103.603 17.285C103.558 16.4252 103.514 15.1464 103.558 13.1181C103.647 9.54642 103.78 9.54642 105.067 9.28186C105.245 9.23776 105.289 9.14957 105.289 9.06138C105.289 8.9291 105.156 8.88501 105.067 8.88501C104.291 8.97319 103.558 9.01729 102.759 9.01729C102.16 9.01729 101.561 8.97319 100.917 8.88501C100.784 8.84091 100.651 8.9291 100.651 9.06138C100.651 9.14957 100.695 9.23776 100.873 9.28186C101.849 9.41414 101.938 9.41414 101.894 13.1181C101.894 14.7275 101.894 15.9622 101.938 17.6819C102.071 21.011 104.801 22.2015 107.287 22.2015C110.594 22.2015 112.724 20.1071 112.724 16.8V13.1401C112.724 12.9637 112.724 12.7653 112.724 12.5889V12.3685C112.724 10.2299 113.146 9.48028 114.433 9.25981C114.522 9.25981 114.611 9.12753 114.611 9.03934C114.478 8.9291 114.389 8.88501 114.3 8.88501Z" fill="#545454"/>
<path id="fullLogo-16" d="M173.936 21.2756C173.159 21.2756 172.515 20.6362 172.515 19.8646C172.515 19.0929 173.159 18.4536 173.936 18.4536C174.713 18.4536 175.356 19.0929 175.356 19.8646C175.379 20.6803 174.735 21.2756 173.936 21.2756ZM175.512 19.9087C175.512 19.0488 174.824 18.3433 173.936 18.3433C173.07 18.3433 172.36 19.0268 172.36 19.9087C172.36 20.7685 173.048 21.474 173.936 21.474C174.824 21.452 175.512 20.7685 175.512 19.9087Z" fill="#545454"/>
<path id="fullLogo-17" d="M173.581 19.8205V19.1811H173.958C174.18 19.1811 174.38 19.2252 174.424 19.5118C174.424 19.7764 174.202 19.8425 173.958 19.8425H173.581V19.8205ZM174.18 19.9969C174.446 19.9969 174.646 19.7764 174.646 19.4898C174.646 19.1591 174.469 18.9386 174.047 18.9386H173.403V20.7685H173.625V19.9969H173.958L174.424 20.7685H174.691L174.18 19.9969Z" fill="#545454"/>
</g>
</g>
</svg>
