<svg width="200" height="200" viewBox="0 0 200 200" fill="none" xmlns="http://www.w3.org/2000/svg">
<path d="M111.2 109.3H93.4V84H85.5V116H111.2V109.3Z" fill="white"/>
<path d="M111.2 46.1004H93.1V38.5004H109.9V32.7004H93.1V25.8004H110.9V19.9004H85.5V52.0004H111.2V46.1004Z" fill="white"/>
<path d="M153.9 52.0004L162 40.8004L170 52.0004H179.8L166.9 35.3004L178.7 19.9004H170.4L162.7 30.2004L155.3 19.9004H145.7L157.8 35.9004L145.4 52.0004H153.9Z" fill="white"/>
<path d="M93.2 167.3L98.3 153.7L103.2 167.3H93.2ZM93.9 148L81 180H88.5L91.1 173.1H105.5L108 180H116.3L103.4 148H93.9Z" fill="white"/>
<path d="M34.7 162.6H27.7V153.6H34.7C38.3 153.6 40.1 155.2 40.1 157.8C40.1 160.8 38.3 162.6 34.7 162.6ZM48.3 158C48.3 151.8 43.9 148 36.4 148H20V180H27.7V168.4H33.9L40.1 180H48.9L41.7 167.3C45.7 166 48.3 162.3 48.3 158Z" fill="white"/>
<path d="M27.8 89.7H34.7C38.1 89.7 40.1 91.7 40.1 94.6C40.1 97.5 38.1 99.3 34.7 99.3H27.8V89.7ZM27.8 105.2H36.3C43.7 105.2 48.4 101.1 48.4 94.3C48.4 87.9 43.8 84 36.5 84H20V116H27.8V105.2Z" fill="white"/>
<path d="M162.3 110.8C156.6 110.8 152.8 106.4 152.8 99.8C152.8 93.4 156.6 89.2 162.3 89.2C168 89.2 171.8 93.4 171.8 100C171.8 106.4 168.1 110.8 162.3 110.8ZM162.3 83C151.8 83 144.6 90 144.6 99.8C144.6 109.9 151.6 117 162.3 117C172.8 117 180 109.8 180 100C180 89.9 173 83 162.3 83Z" fill="white"/>
</svg>
