<svg width="201" height="141" viewBox="0 0 201 141" fill="none" xmlns="http://www.w3.org/2000/svg">
<g clip-path="url(#clip0_178_1717)">
<path d="M0.321484 133.89C0.321484 133.668 0.683284 133.689 0.683284 133.89C0.844084 137.073 2.41188 138.986 5.22588 138.986C5.77179 139.057 6.32654 139.012 6.85364 138.853C7.38073 138.693 7.86823 138.424 8.28405 138.063C8.69987 137.701 9.03459 137.256 9.26619 136.755C9.4978 136.255 9.62103 135.711 9.62778 135.159C9.62778 132.44 7.89918 131.292 4.92438 129.761C3.66759 129.295 2.57867 128.463 1.79777 127.371C1.01687 126.28 0.579722 124.98 0.542584 123.637C0.542584 120.616 2.83398 118.602 6.39168 118.602C7.40578 118.587 8.41604 118.73 9.38659 119.025C9.58672 119.064 9.77653 119.145 9.94423 119.262C10.1119 119.378 10.2539 119.528 10.3614 119.702C10.4688 119.875 10.5395 120.07 10.5689 120.272C10.5983 120.474 10.5858 120.68 10.5323 120.878C10.5323 121.341 10.3112 122.61 10.2308 123.295C10.2308 123.557 9.88908 123.476 9.88908 123.295C9.89173 122.784 9.79401 122.278 9.6015 121.806C9.40898 121.333 9.12545 120.903 8.76709 120.54C8.40873 120.177 7.98256 119.889 7.51291 119.691C7.04325 119.493 6.53932 119.39 6.02988 119.387C5.54797 119.327 5.05885 119.374 4.59706 119.525C4.13528 119.675 3.7121 119.926 3.35743 120.258C3.00276 120.59 2.72524 120.997 2.54449 121.448C2.36374 121.9 2.28417 122.386 2.31138 122.872C2.38346 123.92 2.76364 124.923 3.40396 125.755C4.04428 126.586 4.91605 127.209 5.90928 127.545C9.92928 129.559 11.6177 131.332 11.5172 134.434C11.4167 137.536 8.70318 139.792 5.04498 139.792C3.78677 139.82 2.53577 139.594 1.36668 139.127C1.00981 138.98 0.696661 138.743 0.457312 138.44C0.217963 138.137 0.0604467 137.777 -0.00011564 137.395C-0.0557018 136.218 0.0456938 135.04 0.301384 133.89" fill="white"/>
<path d="M24.9842 135.702C25.0847 138.482 25.346 138.845 27.2756 139.006C27.3236 139.006 27.3696 139.025 27.4035 139.059C27.4374 139.093 27.4565 139.139 27.4565 139.187C27.4565 139.235 27.4374 139.281 27.4035 139.315C27.3696 139.349 27.3236 139.368 27.2756 139.368C26.0897 139.368 24.7631 139.368 23.8184 139.368C22.8737 139.368 21.5069 139.368 20.4617 139.368C20.4137 139.368 20.3677 139.349 20.3338 139.315C20.2999 139.281 20.2808 139.235 20.2808 139.187C20.2808 139.139 20.2999 139.093 20.3338 139.059C20.3677 139.025 20.4137 139.006 20.4617 139.006C22.0496 138.784 22.4717 138.583 22.4717 135.702C22.4717 134.595 22.4717 130.929 22.4717 129.821C22.4717 127.283 22.4717 124.14 22.4717 123.033C22.3712 119.628 21.8486 119.628 20.4617 119.427C20.2205 119.427 20.1602 119.064 20.4617 119.064H23.8184H26.7932C27.0344 119.064 27.0143 119.387 26.7932 119.427C25.3862 119.689 24.9842 119.729 24.9239 123.033V129.801V135.702" fill="white"/>
<path d="M43.2954 130.244C41.9889 132.258 40.2603 135.28 39.2754 136.972C38.5719 138.321 38.5317 138.805 40.2603 138.986C40.5015 138.986 40.5618 139.348 40.2603 139.348C39.2754 139.348 38.0694 139.348 37.3659 139.348C36.6624 139.348 35.3559 139.348 34.2906 139.348C34.0695 139.348 34.0695 139.026 34.2906 138.986C34.9177 138.965 35.5283 138.779 36.061 138.446C36.5938 138.114 37.0299 137.647 37.3257 137.092C38.994 134.776 40.9839 131.795 42.612 129.217C40.9236 126.477 38.994 123.395 37.5669 121.159C36.6423 119.79 36.2202 119.467 34.9539 119.326C34.7127 119.326 34.6524 118.964 34.9539 118.964H38.0091C38.0091 118.964 40.1598 118.964 41.3457 118.964C41.6271 118.964 41.5668 119.326 41.3457 119.326C39.8784 119.488 39.8784 119.971 40.4211 121.018C41.4462 122.892 42.6522 125.047 43.9788 127.303C45.1848 125.289 46.3305 123.274 47.235 121.522C48.1395 119.77 47.9586 119.508 46.7928 119.326C46.5516 119.326 46.4913 118.964 46.7928 118.964H49.5867H52.0389C52.0869 118.964 52.1329 118.983 52.1668 119.017C52.2007 119.051 52.2198 119.097 52.2198 119.145C52.2198 119.193 52.2007 119.239 52.1668 119.273C52.1329 119.307 52.0869 119.326 52.0389 119.326C51.0942 119.467 50.4711 119.528 49.3053 121.22C47.5767 123.718 45.8682 126.195 44.6421 128.23C46.3305 130.929 48.8631 134.957 50.4108 137.173C51.3555 138.523 51.9585 138.905 53.0439 139.006C53.0919 139.006 53.1379 139.025 53.1718 139.059C53.2057 139.093 53.2248 139.139 53.2248 139.187C53.2248 139.235 53.2057 139.281 53.1718 139.315C53.1379 139.349 53.0919 139.369 53.0439 139.369C51.9987 139.369 50.7927 139.369 49.9887 139.369C49.1847 139.369 47.9787 139.369 46.8732 139.369C46.8252 139.369 46.7792 139.349 46.7453 139.315C46.7113 139.281 46.6923 139.235 46.6923 139.187C46.6923 139.139 46.7113 139.093 46.7453 139.059C46.7792 139.025 46.8252 139.006 46.8732 139.006C48.1596 138.885 48.1194 138.361 47.5365 137.314C46.6923 135.763 44.8029 132.802 43.2954 130.244Z" fill="white"/>
<path d="M73.7067 133.909C73.7067 133.668 74.0685 133.708 74.0685 133.909C74.2293 137.072 75.7971 139.066 78.591 139.066C79.1374 139.14 79.6934 139.097 80.2219 138.939C80.7504 138.781 81.2393 138.512 81.6558 138.15C82.0724 137.788 82.4071 137.341 82.6377 136.839C82.8682 136.337 82.9893 135.791 82.9929 135.239C82.9929 132.54 81.2643 131.391 78.3096 129.861C77.0371 129.388 75.9372 128.541 75.155 127.43C74.3728 126.319 73.9449 124.996 73.9278 123.636C73.9278 120.635 76.2192 118.601 79.7769 118.601C80.7903 118.596 81.7991 118.738 82.7718 119.024C82.9713 119.069 83.1598 119.153 83.3261 119.272C83.4924 119.391 83.6331 119.543 83.74 119.717C83.8468 119.892 83.9176 120.087 83.9481 120.289C83.9786 120.492 83.9681 120.698 83.9175 120.897C83.9175 121.36 83.6964 122.629 83.616 123.314C83.616 123.576 83.2542 123.475 83.2542 123.314C83.2622 122.799 83.1676 122.288 82.976 121.811C82.7844 121.333 82.4996 120.899 82.1383 120.533C81.777 120.167 81.3465 119.877 80.872 119.68C80.3974 119.484 79.8885 119.384 79.3749 119.386C78.8961 119.333 78.4114 119.385 77.9546 119.538C77.4978 119.691 77.0798 119.943 76.7298 120.274C76.3797 120.606 76.1059 121.01 75.9275 121.458C75.749 121.907 75.6702 122.389 75.6966 122.871C75.7686 123.919 76.1488 124.922 76.7891 125.754C77.4295 126.585 78.3012 127.208 79.2945 127.544C83.3145 129.558 84.9828 131.331 84.9024 134.433C84.822 137.535 82.0884 139.791 78.4302 139.791C77.1696 139.824 75.9162 139.591 74.7519 139.106C74.395 138.956 74.0832 138.716 73.8471 138.408C73.611 138.101 73.4587 137.738 73.4052 137.354C73.3496 136.177 73.451 134.998 73.7067 133.849" fill="white"/>
<path d="M98.309 136.206C98.309 138.22 98.7713 138.22 100.46 138.22H103.193C105.947 138.22 106.47 136.427 106.851 134.373C106.851 134.151 107.253 134.111 107.253 134.373C107.295 135.718 107.235 137.065 107.073 138.401C106.952 139.127 106.389 139.388 105.063 139.388C103.434 139.388 100.46 139.247 97.3643 139.247H93.6659C93.6179 139.247 93.5719 139.228 93.538 139.194C93.504 139.16 93.485 139.114 93.485 139.066C93.485 139.018 93.504 138.972 93.538 138.938C93.5719 138.904 93.6179 138.885 93.6659 138.885C95.3945 138.683 95.6759 138.401 95.8166 135.581C95.8166 133.305 95.8166 131.009 95.8166 128.693C95.8166 126.678 95.8166 124.926 95.8166 122.871C95.8166 120.152 95.8166 119.568 93.5855 119.306C93.3443 119.306 93.284 118.943 93.5855 118.943H97.3844H104.238C105.183 118.943 105.706 118.943 105.645 119.769C105.585 120.595 105.444 121.784 105.284 122.891C105.284 123.133 104.862 123.133 104.902 122.891C104.902 121.26 104.339 120.192 102.671 120.051C101.002 119.91 99.9974 119.93 98.1683 120.051V128.229C99.9826 128.328 101.801 128.328 103.615 128.229C104.56 128.229 104.52 127.887 104.741 127.907C104.962 127.927 104.741 128.068 104.741 128.733C104.693 129.412 104.585 130.086 104.419 130.747C104.419 130.969 104.017 130.969 104.017 130.747C104.017 129.438 103.213 129.438 101.867 129.377C101.284 129.377 99.2336 129.377 98.1884 129.377V136.246" fill="white"/>
<path d="M135.172 138.986V139.711C135.172 139.711 134.911 139.711 134.469 139.147C132.459 136.77 130.188 134.373 126.208 130.365C123.072 127.182 120.56 124.564 119.193 123.295C119.193 125.813 119.193 132.057 119.494 136.629C119.494 137.939 120.118 138.785 122.107 138.986C122.329 138.986 122.389 139.349 122.107 139.349H118.65C118.087 139.349 116.942 139.349 116.057 139.349C116.009 139.349 115.963 139.33 115.929 139.296C115.896 139.262 115.876 139.216 115.876 139.167C115.876 139.119 115.896 139.073 115.929 139.039C115.963 139.005 116.009 138.986 116.057 138.986C117.243 138.765 117.665 138.462 117.786 136.791C118.047 133.165 118.128 127.968 118.128 125.289C118.128 123.516 118.128 121.26 118.128 119.468C118.128 118.984 118.128 118.843 118.248 118.823C118.369 118.803 118.489 118.823 118.952 119.347C121.364 122.026 123.997 124.826 127.253 128.109C130.087 130.949 132.479 133.407 134.248 135.038C134.248 131.171 134.248 126.981 134.087 122.409C133.946 120.032 133.685 119.669 131.856 119.407C131.808 119.407 131.762 119.388 131.728 119.354C131.694 119.32 131.675 119.274 131.675 119.226C131.675 119.178 131.694 119.132 131.728 119.098C131.762 119.064 131.808 119.045 131.856 119.045H134.831H137.283C137.544 119.045 137.464 119.407 137.283 119.407C136.037 119.609 135.715 120.495 135.635 121.986C135.454 127.021 135.313 131.835 135.313 138.986" fill="white"/>
<path d="M147.031 133.909C147.031 133.668 147.393 133.708 147.393 133.909C147.554 137.072 149.122 139.066 151.916 139.066C152.462 139.14 153.018 139.097 153.547 138.939C154.075 138.781 154.564 138.512 154.981 138.15C155.397 137.788 155.732 137.341 155.962 136.839C156.193 136.337 156.314 135.791 156.318 135.239C156.318 132.54 154.589 131.391 151.634 129.861C150.362 129.388 149.262 128.541 148.48 127.43C147.698 126.319 147.27 124.996 147.253 123.636C147.253 120.635 149.544 118.601 153.102 118.601C154.115 118.596 155.124 118.738 156.097 119.024C156.296 119.069 156.484 119.153 156.651 119.272C156.817 119.391 156.958 119.543 157.065 119.717C157.172 119.892 157.242 120.087 157.273 120.289C157.303 120.492 157.293 120.698 157.242 120.897C157.242 121.36 157.001 122.629 156.941 123.314C156.941 123.576 156.579 123.475 156.579 123.314C156.587 122.805 156.494 122.298 156.306 121.825C156.119 121.351 155.839 120.92 155.484 120.555C155.129 120.19 154.706 119.898 154.238 119.698C153.771 119.497 153.268 119.392 152.76 119.386C152.276 119.323 151.785 119.368 151.321 119.517C150.856 119.666 150.431 119.916 150.074 120.248C149.717 120.581 149.437 120.989 149.255 121.442C149.074 121.895 148.994 122.383 149.021 122.871C149.092 123.917 149.469 124.918 150.106 125.749C150.742 126.581 151.61 127.205 152.599 127.544C156.619 129.558 158.307 131.331 158.207 134.433C158.106 137.535 155.413 139.791 151.755 139.791C150.494 139.827 149.24 139.593 148.077 139.106C147.72 138.956 147.408 138.716 147.172 138.408C146.936 138.101 146.783 137.738 146.73 137.354C146.664 136.177 146.766 134.997 147.031 133.849" fill="white"/>
<path d="M171.634 136.206C171.634 138.22 172.096 138.22 173.785 138.22H176.518C179.272 138.22 179.795 136.427 180.176 134.373C180.176 134.151 180.578 134.111 180.578 134.373C180.62 135.718 180.56 137.065 180.398 138.401C180.277 139.127 179.714 139.388 178.388 139.388C176.759 139.388 173.785 139.247 170.689 139.247H166.991C166.943 139.247 166.897 139.228 166.863 139.194C166.829 139.16 166.81 139.114 166.81 139.066C166.81 139.018 166.829 138.972 166.863 138.938C166.897 138.904 166.943 138.885 166.991 138.885C168.719 138.683 169.001 138.401 169.142 135.581C169.142 133.305 169.142 131.009 169.142 128.693C169.142 126.678 169.142 124.926 169.142 122.871C169.142 120.152 169.142 119.568 166.91 119.306C166.669 119.306 166.609 118.943 166.91 118.943H170.709H177.563C178.508 118.943 179.031 118.943 178.97 119.769C178.91 120.595 178.769 121.784 178.609 122.891C178.609 123.133 178.187 123.133 178.227 122.891C178.227 121.26 177.664 120.192 175.996 120.051C174.327 119.91 173.322 119.93 171.493 120.051V128.229C173.308 128.328 175.126 128.328 176.94 128.229C177.885 128.229 177.845 127.887 178.066 127.907C178.287 127.927 178.066 128.068 178.066 128.733C178.018 129.412 177.91 130.086 177.744 130.747C177.744 130.969 177.342 130.969 177.342 130.747C177.342 129.438 176.538 129.438 175.192 129.377C174.609 129.377 172.559 129.377 171.513 129.377V136.246" fill="white"/>
<path d="M189.804 133.909C189.804 133.668 190.166 133.708 190.166 133.909C190.327 137.072 191.895 139.066 194.709 139.066C195.255 139.137 195.809 139.092 196.337 138.932C196.864 138.773 197.351 138.504 197.767 138.143C198.183 137.781 198.518 137.335 198.749 136.835C198.981 136.334 199.104 135.79 199.111 135.239C199.111 132.54 197.382 131.392 194.407 129.861C193.135 129.39 192.037 128.542 191.258 127.43C190.478 126.319 190.056 124.995 190.046 123.637C190.046 120.635 192.317 118.601 195.875 118.601C196.888 118.594 197.897 118.737 198.87 119.024C199.069 119.069 199.258 119.153 199.424 119.272C199.59 119.391 199.731 119.543 199.838 119.718C199.945 119.892 200.015 120.087 200.046 120.289C200.076 120.492 200.066 120.699 200.015 120.897C200.015 121.36 199.794 122.629 199.714 123.314C199.714 123.576 199.372 123.475 199.372 123.314C199.377 122.8 199.281 122.29 199.088 121.814C198.896 121.338 198.611 120.904 198.25 120.539C197.889 120.174 197.46 119.884 196.987 119.686C196.513 119.488 196.006 119.386 195.493 119.386C195.013 119.333 194.528 119.385 194.07 119.538C193.612 119.692 193.193 119.943 192.841 120.274C192.49 120.605 192.214 121.009 192.033 121.457C191.853 121.906 191.771 122.388 191.794 122.871C191.872 123.917 192.254 124.918 192.893 125.749C193.533 126.58 194.402 127.204 195.392 127.544C199.412 129.559 201.101 131.331 201 134.433C200.9 137.535 198.186 139.791 194.528 139.791C193.305 139.83 192.088 139.617 190.95 139.167C190.594 139.019 190.283 138.779 190.05 138.471C189.816 138.163 189.669 137.798 189.624 137.414C189.551 136.238 189.646 135.058 189.905 133.909" fill="white"/>
<path d="M159.594 91.8522C159.594 91.8522 159.594 91.9932 159.735 91.8522C159.876 91.7112 159.735 91.7314 159.594 91.8522Z" fill="#673065"/>
<path d="M157.825 92.8794L158.107 92.819L158.046 92.7988L157.825 92.8794Z" fill="#673065"/>
<path d="M157.403 93.1816C157.182 93.4234 156.7 93.4234 156.659 93.6651C156.971 93.4838 157.293 93.3223 157.624 93.1816H157.423H157.403Z" fill="#673065"/>
<path d="M156.036 94.4297H156.177C155.775 94.5505 156.016 94.4297 155.996 94.5304" fill="#673065"/>
<path d="M155.514 94.7728C155.413 94.7728 155.514 94.7728 155.654 94.6318H155.393C155.393 94.7527 155.273 94.8131 155.514 94.7728Z" fill="#673065"/>
<path d="M155.675 94.3095C155.916 94.3095 155.675 94.3095 155.675 94.4505C156.097 94.3095 156.097 94.1483 155.675 94.3095Z" fill="#673065"/>
<path d="M156.619 93.403L156.499 93.5238C156.499 93.5238 156.7 93.403 156.78 93.3828L156.619 93.403Z" fill="#673065"/>
<path d="M154.006 95.1549C154.006 95.1549 154.167 95.0341 154.248 94.9736H154.067C154.067 94.9736 154.067 95.1146 154.067 95.1549" fill="#673065"/>
<path d="M152.358 95.397C152.195 95.4508 152.019 95.4508 151.856 95.397C152.007 95.4699 152.171 95.511 152.338 95.5178C152.218 95.5178 152.479 95.397 152.338 95.3164" fill="#673065"/>
<path d="M153.202 95.2158C153.279 95.1845 153.343 95.1276 153.383 95.0547L153.202 95.2158Z" fill="#673065"/>
<path d="M154.207 94.4902C153.946 94.6715 154.207 94.6514 154.429 94.6715C154.187 94.6715 154.429 94.5507 154.207 94.4902Z" fill="#673065"/>
<path d="M153.403 94.9133L153.504 94.8932L153.363 94.873L153.403 94.9133Z" fill="#673065"/>
<path d="M152.157 95.1555H151.675C151.809 95.1435 151.943 95.1435 152.077 95.1555" fill="#673065"/>
<path d="M150.248 95.1748H150.287V95.1553L150.248 95.1748Z" fill="#673065"/>
<path d="M152.177 95.1355H152.459C152.373 95.1124 152.283 95.1124 152.197 95.1355" fill="#673065"/>
<path d="M150.509 95.3162C150.638 95.2602 150.773 95.2197 150.911 95.1953H150.268C150.268 95.1953 150.268 95.1953 150.509 95.3363" fill="#673065"/>
<path d="M151.434 95.2556H151.715H151.413C151.795 95.2556 151.132 95.0945 151.655 95.1146C151.454 95.1146 151.655 94.9736 151.233 94.9736C150.81 94.9736 151.233 95.1549 151.413 95.2758L151.434 95.2556Z" fill="#673065"/>
<path d="M153.705 94.4302C153.626 94.5262 153.565 94.6353 153.524 94.7525C153.524 94.7525 153.705 94.551 153.906 94.4705C154.107 94.4705 153.906 94.3496 153.906 94.3496C153.906 94.3496 153.765 94.3496 153.725 94.3496" fill="#673065"/>
<path d="M152.137 94.833H152.559C152.559 94.833 152.559 94.7122 152.338 94.833H152.137Z" fill="#673065"/>
<path d="M150.006 95.1553L150.248 95.3567V95.2358L150.006 95.1553Z" fill="#673065"/>
<path d="M149.484 95.1754L149.625 95.256V95.1553L149.484 95.1754Z" fill="#673065"/>
<path d="M139.615 85.8086C139.494 85.8086 139.615 85.9899 139.836 86.151C139.813 86.0516 139.813 85.9483 139.836 85.8489L139.615 85.8086Z" fill="#673065"/>
<path d="M143.916 92.6572C144.021 92.7488 144.145 92.8174 144.278 92.8587C144.278 92.7378 144.097 92.7378 143.916 92.6572Z" fill="#673065"/>
<path d="M143.916 92.6574C143.809 92.5863 143.713 92.4978 143.635 92.3955C143.669 92.4731 143.722 92.5412 143.788 92.5938C143.855 92.6465 143.933 92.6821 144.017 92.6977" fill="#673065"/>
<path d="M148.559 94.9736C148.522 94.9931 148.481 95.0032 148.439 95.0032C148.397 95.0032 148.355 94.9931 148.318 94.9736H148.559Z" fill="#673065"/>
<path d="M149.243 94.6719C149.082 94.6719 148.921 94.551 148.881 94.6719C148.841 94.7927 149.243 94.833 149.222 94.6719" fill="#673065"/>
<path d="M147.092 94.5506C147.092 94.5506 147.092 94.4298 147.092 94.4096C146.67 94.1679 147.092 94.7118 147.092 94.5506Z" fill="#673065"/>
<path d="M149.021 94.4705L149.122 94.3496H148.961L149.021 94.4705Z" fill="#673065"/>
<path d="M160.036 91.3479L159.996 91.509L160.117 91.3076L160.036 91.3479Z" fill="#673065"/>
<path d="M125.384 36.8016L125.585 36.9024L125.344 36.7412L125.384 36.8016Z" fill="#673065"/>
<path d="M130.329 38.6543L130.53 38.7752L130.349 38.6543H130.329Z" fill="#673065"/>
<path d="M130.128 38.7351L130.148 38.6747L130.047 38.6143L130.128 38.7351Z" fill="#673065"/>
<path d="M132.479 40.7491H132.518L132.499 40.7295L132.479 40.7491Z" fill="#673065"/>
<path d="M132.941 41.2329L133.042 41.2933L133.002 41.1523L132.941 41.2329Z" fill="#673065"/>
<path d="M132.72 42.1393L132.821 42.2601L132.861 42.1191L132.72 42.1393Z" fill="#673065"/>
<path d="M122.871 36.3583L122.952 36.3986L123.113 36.2979L122.871 36.3583Z" fill="#673065"/>
<path d="M72.3401 38.3925L72.4004 38.4126L72.6215 38.332L72.3401 38.3925Z" fill="#673065"/>
<path d="M76.9429 36.318L77.0836 36.3381L77.0434 36.2979L76.9429 36.318Z" fill="#673065"/>
<path d="M80.1589 36.0361L80.179 36.0563L80.1991 36.0361H80.1589Z" fill="#673065"/>
<path d="M80.8223 36.0759L80.963 36.0356L80.8223 35.9551V36.0759Z" fill="#673065"/>
<path d="M81.3247 36.8621L81.5056 36.8822L81.4252 36.7412L81.3247 36.8621Z" fill="#673065"/>
<path d="M70.3301 39.9237L70.4105 39.8834L70.4507 39.7021L70.3301 39.9237Z" fill="#673065"/>
<path d="M91.9575 19.0759L91.9776 19.0155L91.8972 18.7939L91.9575 19.0759Z" fill="#673065"/>
<path d="M89.8472 14.3424L89.8874 14.4431V14.3223L89.8472 14.3424Z" fill="#673065"/>
<path d="M89.606 11.2203H89.6261L89.606 11.2002V11.2203Z" fill="#673065"/>
<path d="M89.5054 10.5756H89.626L89.6059 10.4346L89.5054 10.5756Z" fill="#673065"/>
<path d="M90.3093 9.9712L90.4299 10.0518V9.89062L90.3093 9.9712Z" fill="#673065"/>
<path d="M93.465 21.0902L93.4248 20.9895L93.2439 20.9492L93.465 21.0902Z" fill="#673065"/>
<path d="M112.158 84.318L112.058 84.5194L112.218 84.2979L112.158 84.318Z" fill="#673065"/>
<path d="M110.309 89.1128H110.369L110.409 89.0322L110.309 89.1128Z" fill="#673065"/>
<path d="M108.319 91.5295L108.339 91.5094L108.319 91.4893V91.5295Z" fill="#673065"/>
<path d="M107.776 92.0529L107.937 92.0327L107.857 91.9521L107.776 92.0529Z" fill="#673065"/>
<path d="M106.832 91.8517L106.952 91.892L106.932 91.751L106.832 91.8517Z" fill="#673065"/>
<path d="M112.52 81.8814L112.621 82.0425L112.56 81.8008L112.52 81.8814Z" fill="#673065"/>
<path d="M62.672 85.2858L62.5715 85.5073L62.7122 85.2656L62.672 85.2858Z" fill="#673065"/>
<path d="M60.8228 90.0796H60.863L60.9233 89.999L60.8228 90.0796Z" fill="#673065"/>
<path d="M58.8328 92.4963L58.8529 92.4762L58.8328 92.4561V92.4963Z" fill="#673065"/>
<path d="M58.29 93.0398L58.4508 92.9995L58.3704 92.9189L58.29 93.0398Z" fill="#673065"/>
<path d="M57.3252 92.8386L57.4659 92.8588L57.4458 92.7178L57.3252 92.8386Z" fill="#673065"/>
<path d="M63.0337 82.8482L63.1342 83.0093L63.0538 82.7676L63.0337 82.8482Z" fill="#673065"/>
<path d="M62.8929 83.432L63.0537 83.291H62.8728C62.8918 83.3568 62.8918 83.4267 62.8728 83.4924" fill="#673065"/>
<path d="M90.4501 48.9076C90.6913 48.4846 90.5506 48.5652 90.7717 48.0415C90.631 48.2631 90.5908 48.1624 90.4903 47.9408C90.5729 47.8256 90.6468 47.7044 90.7114 47.5782H90.5506C90.5906 47.4196 90.5906 47.2534 90.5506 47.0948C90.5506 47.0948 90.6913 46.3495 90.7918 46.2488C90.5305 46.1078 90.7918 45.7855 90.5506 45.7251C90.3094 45.6646 90.5506 45.5841 90.5506 45.5035C90.5506 45.4229 90.7717 45.5035 90.6913 45.5035H90.5506C90.5641 45.3695 90.5641 45.2346 90.5506 45.1006V45.2215L90.4501 44.8992C90.4285 44.8518 90.4172 44.8003 90.4172 44.7481C90.4172 44.696 90.4285 44.6445 90.4501 44.5971C90.2956 44.3492 90.2121 44.0635 90.2089 43.7712C90.1952 43.4604 90.0662 43.1659 89.8471 42.9454C89.8471 42.9454 89.9677 43.1065 89.8471 43.1669C89.6662 42.7036 89.2843 42.3612 89.224 42.0591H89.3446C89.2408 41.7601 89.0989 41.4757 88.9226 41.2131L89.023 41.1124C88.8823 40.9512 88.7215 40.6692 88.5406 40.4074C88.3597 40.1455 88.1386 39.9239 87.9577 39.9239C87.7768 39.9239 87.5356 39.5211 87.3949 39.3196H87.2743C87.0822 39.1785 86.9127 39.0087 86.7718 38.8161C86.1688 38.5945 85.8271 38.0708 85.3447 37.7888L84.9025 37.4262C84.9025 37.5874 84.9025 37.3054 84.6613 37.2651C84.4883 37.1111 84.2692 37.019 84.0382 37.0032L83.6965 36.8622C84.0382 37.0838 83.6965 36.9831 83.5558 37.0838L83.3749 36.9226C83.2744 36.9226 83.3749 37.0636 83.3749 37.0234C83.3749 36.9831 82.8322 36.7615 82.7518 36.6004C82.8041 36.5834 82.8604 36.5834 82.9126 36.6004C82.6312 36.6004 82.7518 36.6004 82.7719 36.4795C82.4101 36.4795 82.2493 36.4795 81.9679 36.4795C82.3498 36.3184 81.2443 36.3184 81.5056 36.1371C81.2242 36.2781 81.3247 36.1371 81.1639 36.2579C81.4811 36.3056 81.7796 36.4377 82.0282 36.6406H81.7468C81.8674 36.8824 82.3297 36.6406 82.4503 36.8219C82.5709 37.0032 82.1287 36.7212 82.1086 36.8219L82.2292 36.6608C82.5454 36.7174 82.8385 36.8643 83.0735 37.0838C82.8122 37.0838 83.3146 37.2852 83.0735 37.3255H82.9126L81.988 37.0435H81.8071L80.8222 36.8421C80.8222 36.6809 80.38 36.5601 80.5207 36.4594C80.6614 36.3586 80.4001 36.6004 80.0785 36.4594C79.7569 36.3184 80.4001 36.2579 80.4001 36.2579C80.1388 36.2579 80.1388 36.1371 80.1388 36.0766C80.1388 36.0162 79.6966 36.6004 79.9378 36.7011C80.0128 36.6638 80.0954 36.6444 80.179 36.6444C80.2627 36.6444 80.3453 36.6638 80.4202 36.7011C78.7499 36.4911 77.0537 36.6669 75.4615 37.215C73.8694 37.7632 72.4235 38.6691 71.2345 39.8635C71.0737 40.0246 70.9531 40.1858 70.8124 40.3469C70.8124 40.1455 70.8124 39.9441 70.6114 39.9844L70.7722 39.8434C70.5913 39.8434 70.33 40.3469 70.1089 40.3268C70.0098 40.5365 69.9225 40.7517 69.8476 40.9714C69.8476 40.9714 69.6667 40.9714 69.7069 40.8304C69.7471 40.6894 69.5059 41.0721 69.5662 40.8304C69.2647 41.6159 68.8828 42.3209 68.521 43.0461C68.1489 43.7607 67.9169 44.5402 67.8376 45.3424C67.8376 45.4431 67.8376 45.3424 67.717 45.3424C67.8376 45.6646 67.5763 45.6042 67.5361 45.7452C67.4959 45.8862 67.6366 46.0675 67.6969 46.2085C67.7572 46.3495 67.5562 46.2085 67.516 46.2085C67.3552 47.0344 67.516 47.8199 67.516 48.4846C67.516 48.6861 67.717 48.4846 67.7572 48.6861C67.6165 48.5048 67.6165 48.6861 67.6165 48.9278C67.6165 49.1695 67.6165 49.3709 67.6165 49.2702C67.8979 49.5119 67.8376 50.2371 68.1793 50.0558C68.1793 50.3579 68.0788 50.3378 68.0185 50.2572C68.122 50.5768 68.1829 50.9087 68.1994 51.2442C68.1994 51.2442 68.3803 51.7679 68.5612 52.1708C68.6611 52.5294 68.8723 52.8469 69.1642 53.0772C68.9029 52.9564 69.1642 53.0772 69.1642 53.3794L68.9431 53.2786C69.0229 53.4241 69.1101 53.5652 69.2044 53.7016C69.2044 53.7016 69.2044 53.8225 69.2044 53.7016C69.2044 53.5808 69.2044 53.7016 69.4255 53.8024C69.5486 53.9553 69.6064 54.1508 69.5863 54.3462L69.7069 54.5476C69.7069 54.6886 69.4858 53.9635 69.8878 54.3664C69.8878 54.3664 69.8878 54.7894 70.0486 54.8498C69.8677 54.6081 70.0486 54.5879 70.0486 54.6282C70.1195 54.7419 70.2077 54.8439 70.3099 54.9304H70.0687C70.8572 55.8217 71.7634 56.601 72.7621 57.2468C72.7621 57.0856 73.5058 57.6899 73.546 57.4079C73.3249 57.2266 73.7269 57.2669 73.9078 57.4079C73.6666 57.4079 74.1892 57.8511 73.6264 57.5892L73.7671 57.7302H75.154C78.6313 57.7302 84.7819 56.8842 87.0532 51.3248H87.3145C86.6506 54.0815 85.1726 56.5736 83.0735 58.4755C83.1854 58.3991 83.3071 58.3381 83.4352 58.2942C83.6362 58.2942 83.5759 58.2942 83.4352 58.4554C83.7166 58.1532 84.5005 58.1935 84.601 58.0525C84.7015 57.9115 84.601 57.8712 84.601 57.7504C85.003 57.5892 84.7216 58.1129 85.1437 57.7504H85.003C85.003 57.7504 85.2442 57.0051 85.4653 56.9648V57.1058C85.8472 56.9849 86.0081 56.3001 86.2292 56.4814V56.6022C86.6513 56.0584 86.4904 56.4612 86.8924 55.8972C87.1336 55.7159 87.1336 55.4742 87.3748 55.5346C87.5681 55.3637 87.7371 55.1672 87.8773 54.9505C87.8773 54.9505 88.0783 54.8296 88.0783 54.7491C88.0783 54.6685 88.6813 54.1045 88.7617 53.9635C88.5607 54.2052 88.5809 53.9635 88.5607 53.9635C88.5406 53.9635 88.8622 53.8024 88.9024 53.5405C89.1034 53.6412 89.3447 53.7218 89.606 53.2988C89.606 53.2988 89.4652 53.4398 89.4451 53.2988C89.425 53.1578 89.4452 53.1578 89.5658 53.1175C89.6863 53.0772 89.4451 53.1175 89.4049 53.1175C89.7466 52.9362 89.6863 52.6341 89.9476 52.2111C89.827 52.3319 89.827 52.2111 89.7868 52.1104C89.7466 52.0096 89.7868 51.4456 90.0682 51.7276C90.0682 51.2442 90.3295 50.7004 90.4501 50.1968C90.5196 49.8172 90.5196 49.4282 90.4501 49.0486C90.4501 48.9479 90.5506 48.7062 90.5506 48.5451L90.4501 48.9076ZM84.2593 37.2046C84.3799 37.2046 84.4603 37.2046 84.2593 37.2046V37.2046ZM84.5408 38.0708H84.7618C84.6132 38.0199 84.4811 37.9294 84.3799 37.8089H84.6613C84.4603 37.6881 84.2392 37.8089 83.9578 37.5269C83.9578 37.5269 83.9578 37.2046 84.199 37.2046C84.3075 37.2143 84.4119 37.2507 84.5031 37.3104C84.5942 37.3701 84.6693 37.4514 84.7216 37.5471C84.8432 37.7744 85.0331 37.9576 85.2643 38.0708C85.2643 38.0708 85.2643 37.8291 85.5256 38.0708C85.7399 38.2727 85.8931 38.531 85.9678 38.8161C85.5094 38.4751 85.033 38.1591 84.5408 37.8694M87.2542 40.2865C87.2999 40.3018 87.3493 40.3018 87.3949 40.2865C87.4088 40.3935 87.4088 40.5018 87.3949 40.6088C87.3151 40.5198 87.2412 40.4256 87.1738 40.3268M88.2793 54.4268V54.2052V54.0239C88.2793 54.0239 88.2793 54.0239 88.2793 54.1448C88.3798 54.1448 88.4602 54.1448 88.4401 54.1448V54.1851M88.7617 42.0994C88.6837 41.9921 88.6163 41.8774 88.5607 41.7569L88.7014 41.5958L88.5205 41.7166C88.4585 41.6016 88.3844 41.4936 88.2994 41.3944C88.5383 41.5216 88.761 41.6771 88.9627 41.8576C88.9627 41.8576 88.822 42.0389 88.6813 42.1195M89.7467 44.4964L89.5456 43.9324C89.5972 43.7261 89.6644 43.5241 89.7467 43.3281V43.7108H89.8672C89.8835 43.9629 89.8277 44.2144 89.7064 44.4359M90.2089 48.3436C90.2089 48.2429 90.2089 48.1624 90.2089 48.0616C90.2089 47.9609 90.3898 48.0616 90.4501 48.0616L90.1888 48.3436" fill="#673065"/>
<path d="M112.862 12.8717C112.934 12.7558 112.98 12.6256 112.998 12.49C113.015 12.3543 113.003 12.2166 112.962 12.0861C112.962 11.8444 112.962 11.6228 112.962 11.3811C112.962 11.1394 112.801 11.0991 112.821 10.7567C112.842 10.4143 112.761 10.0718 112.56 10.0718C112.621 9.77275 112.621 9.4645 112.56 9.16541C112.701 8.84313 112.259 8.44027 112.178 8.15827C112.098 7.87627 112.178 7.99713 112.339 8.15827C112.038 7.85613 112.098 7.0907 111.957 6.98998C111.816 6.88927 111.756 6.98998 111.656 6.98998C111.475 6.58713 112.017 6.86913 111.656 6.44613C111.656 6.44613 111.656 6.62741 111.656 6.58713C111.656 6.54684 110.912 6.34541 110.872 6.12384H111.012C110.892 5.72098 110.208 5.57998 110.389 5.35841H110.53C109.967 4.93541 110.389 5.07641 109.827 4.67356C109.646 4.45198 109.425 4.45198 109.465 4.21027H109.565C109.381 4.02523 109.186 3.8504 108.982 3.68656C108.982 3.68656 108.842 3.50527 108.781 3.50527C108.721 3.50527 108.138 2.90098 107.997 2.82041C108.219 3.02184 107.997 3.0017 107.997 3.02184C107.976 2.92371 107.923 2.83527 107.847 2.76987C107.771 2.70447 107.675 2.66565 107.575 2.65927C107.608 2.55431 107.608 2.44195 107.575 2.33698C106.908 2.26175 106.237 2.22812 105.565 2.23627C102.088 2.23627 95.9375 3.06213 93.6662 8.6417H93.4049C93.9507 6.04028 95.1947 3.6375 97.0028 1.69241H96.842H97.1033L97.646 1.24927L97.2842 1.20898C96.9819 1.23116 96.6972 1.35956 96.4802 1.57156C96.4802 1.57156 96.6611 1.4507 96.7013 1.57156C96.2591 1.75284 95.9174 2.13556 95.5958 2.19598V2.07513C95.3036 2.1789 95.0265 2.32115 94.7717 2.49813V2.39741C94.5408 2.56748 94.2991 2.72224 94.0481 2.8607C93.7868 3.06213 93.5657 3.26356 93.5657 3.46498C93.5657 3.66641 93.1637 3.88798 92.9828 4.02898C92.8431 4.20997 92.681 4.37241 92.5004 4.51241C92.2592 5.13684 91.7366 5.47927 91.4552 5.9627L91.1135 6.40584C91.2743 6.40584 90.9929 6.40584 90.9326 6.62741C90.7899 6.81522 90.6997 7.03769 90.6713 7.27198C90.6104 7.40656 90.5363 7.53476 90.4502 7.6547C90.6914 7.31227 90.5909 7.75541 90.6914 7.81584L90.4502 8.05756C90.4502 8.05756 90.5909 7.95684 90.5708 8.05756C90.5507 8.15827 90.3095 8.60141 90.1286 8.68198C89.9477 8.76256 90.1286 8.68198 90.1286 8.52084C90.1286 8.80284 90.1286 8.68199 90.008 8.66184V9.46756C89.8271 9.08484 89.8472 10.1927 89.6462 9.93084C89.7869 10.2128 89.6462 10.092 89.7668 10.2733C89.8211 9.95373 89.9599 9.65463 90.1688 9.40713V9.68913C90.4301 9.56827 90.1688 9.10498 90.3497 8.96398C90.5306 8.82298 90.3497 9.30641 90.3497 9.32656L90.209 9.2057C90.2598 8.89106 90.3992 8.59753 90.611 8.3597C90.611 8.60141 90.8321 8.11799 90.8723 8.3597V8.54098C90.7718 8.84313 90.6713 9.14527 90.5909 9.46756V9.64884C90.5909 9.97113 90.4502 10.2934 90.41 10.6358C90.2291 10.6358 90.1085 11.079 90.008 10.9178C90.008 11.0991 90.1487 11.0387 90.008 11.3811C89.8673 11.7236 89.8472 11.0991 89.807 10.9984C89.807 11.2603 89.6663 11.2603 89.6261 11.2603C89.5859 11.2603 90.1487 11.6833 90.2492 11.4416C90.2137 11.3695 90.1953 11.2902 90.1953 11.2099C90.1953 11.1296 90.2137 11.0503 90.2492 10.9783C90.0582 12.6502 90.2484 14.3438 90.8055 15.9314C91.3626 17.519 92.272 18.9591 93.4652 20.1433L93.9275 20.5663C93.7265 20.5663 93.5456 20.5663 93.5858 20.7677L93.4451 20.6066C93.4451 20.7878 93.9275 21.0497 93.9074 21.2713L94.5506 21.5331C94.5506 21.5331 94.5506 21.7144 94.43 21.6741C94.3094 21.6338 94.6712 21.8756 94.43 21.8151C95.2139 22.1173 95.8973 22.5 96.641 22.8626C97.3505 23.2266 98.1201 23.4586 98.9123 23.5474C99.0128 23.5474 98.9123 23.5474 98.9123 23.6481C99.2339 23.5474 99.1736 23.7891 99.3344 23.8496L99.7967 23.6683C99.9575 23.769 99.7967 23.8294 99.7967 23.8697C100.601 24.0308 101.405 23.8697 102.048 23.8697C102.249 23.8697 102.048 23.6683 102.269 23.6078C102.068 23.769 102.269 23.769 102.51 23.769C102.751 23.769 102.952 23.769 102.852 23.769C103.073 23.487 103.817 23.5474 103.616 23.205C103.937 23.205 103.917 23.3057 103.837 23.346C104.153 23.2355 104.487 23.181 104.822 23.1848C104.822 23.1848 105.324 23.0036 105.726 22.8223C106.089 22.7211 106.412 22.51 106.651 22.218C106.53 22.4798 106.651 22.218 106.932 22.218L106.832 22.4396L107.274 22.1777C107.274 22.1777 107.274 22.1777 107.274 21.9561C107.429 21.8357 107.62 21.7718 107.817 21.7748L108.018 21.6338C108.158 21.5331 107.435 21.8756 107.857 21.4727C107.857 21.4727 108.259 21.4727 108.319 21.2914C108.098 21.4727 108.058 21.2914 108.118 21.2914L108.42 21.0296V21.2713C109.313 20.4831 110.085 19.5668 110.711 18.552C110.57 18.552 111.173 17.8268 110.872 17.7866C110.711 18.0081 110.751 17.6053 110.872 17.424C110.872 17.6657 111.314 17.142 111.053 17.706C111.053 17.5851 111.274 17.4643 111.374 17.3233C111.475 17.1823 111.796 17.0211 111.897 16.6586C112.081 16.3187 112.304 16.0011 112.56 15.7118C112.922 15.1277 112.781 14.2616 112.882 14.1407L112.56 14.1004C112.689 13.922 112.78 13.7194 112.828 13.5048C112.877 13.2902 112.881 13.068 112.842 12.8516M95.3948 2.41756C95.3948 2.41756 95.5757 2.55856 95.6561 2.69956L95.3144 2.90098L95.1536 2.75998V2.94127L94.8521 3.16284C94.9781 2.91789 95.1408 2.69372 95.3345 2.49813M93.9476 3.96856L93.6863 4.21027C93.6863 4.21027 93.6863 4.08941 93.6863 4.06927L93.9878 3.96856M90.7316 7.19141C90.7316 6.98998 90.7316 7.05041 90.7316 7.19141V7.19141ZM91.5959 6.90941C91.6069 6.83597 91.6069 6.76129 91.5959 6.68784C91.547 6.8378 91.4564 6.97061 91.3346 7.07056C91.3346 6.96984 91.3346 6.86913 91.3346 6.76841C91.214 6.98998 91.3346 7.21156 91.0532 7.49356C91.0532 7.39284 90.7517 7.49356 90.7316 7.25184C90.745 7.14171 90.785 7.0365 90.848 6.94527C90.911 6.85404 90.9952 6.77952 91.0934 6.72813C91.399 6.59408 91.643 6.34955 91.7768 6.04327C91.7768 6.04327 91.5557 6.04327 91.7768 5.76127C91.9757 5.5474 92.2353 5.39978 92.5205 5.33827C92.167 5.79259 91.8447 6.2704 91.5557 6.76841M107.435 2.96141V2.8607C107.385 2.81108 107.322 2.77623 107.254 2.75998H107.374V2.5787C107.374 2.5787 107.595 2.82041 107.716 2.92113H107.495" fill="#673065"/>
<path d="M162.911 84.9428C163.051 84.1169 162.911 83.3314 162.911 82.6868C162.911 82.4854 162.71 82.6868 162.669 82.4652C162.81 82.6465 162.83 82.4652 162.81 82.2235C162.79 81.9818 162.81 81.7804 162.81 81.8811C162.529 81.6595 162.589 80.9142 162.247 81.1157C162.247 80.7934 162.247 80.8135 162.408 80.8941C162.301 80.5754 162.24 80.243 162.227 79.9071C162.227 79.9071 162.046 79.4035 161.886 78.9805C161.725 78.5575 161.463 78.1546 161.262 78.0741C161.524 78.1949 161.262 78.0741 161.262 77.7921L161.504 77.8928L161.242 77.4497C161.242 77.4497 161.242 77.3288 161.242 77.3489C161.242 77.3691 161.242 77.3489 161.021 77.3489C160.913 77.1884 160.857 76.9986 160.86 76.8051L160.8 76.5432C160.8 76.4224 161.021 77.1475 160.639 76.7245C160.639 76.7245 160.639 76.3015 160.458 76.2612C160.639 76.4828 160.458 76.5231 160.458 76.4626L160.197 76.1605H160.438C159.655 75.2701 158.748 74.4968 157.745 73.8642C157.745 74.0052 157.001 73.4009 156.961 73.6829C157.202 73.8642 156.78 73.8239 156.599 73.6829C156.84 73.6829 156.318 73.2398 156.881 73.5017L156.78 73.3405H155.393C151.916 73.3405 145.765 74.1664 143.494 79.7459H143.233C143.887 76.9577 145.374 74.4354 147.494 72.5146L147.132 72.7161C146.931 72.7161 146.991 72.7161 147.132 72.5348C146.851 72.8369 146.067 72.7966 145.966 72.9376C145.866 73.0786 145.966 73.1391 145.966 73.2599C145.564 73.4211 145.846 72.8772 145.424 73.2599C145.424 73.2599 145.605 73.2599 145.584 73.2599C145.564 73.2599 145.323 74.0254 145.102 74.0656V73.9247C144.72 74.0455 144.559 74.7304 144.338 74.5289V74.4081C143.916 74.9721 144.077 74.5491 143.675 75.1131C143.434 75.3145 143.434 75.5361 143.193 75.4958V75.3951C143.01 75.5759 142.842 75.7712 142.69 75.9792C142.69 75.9792 142.509 76.1202 142.509 76.1806C142.509 76.2411 141.906 76.8252 141.826 76.9864C142.007 76.7447 141.987 76.9864 142.007 76.9864C142.027 76.9864 141.705 77.1475 141.665 77.4094C141.464 77.4094 141.223 77.2281 140.961 77.6712C140.961 77.6712 141.102 77.5101 141.122 77.6712C141.142 77.8324 141.122 77.8122 141.002 77.8324C140.881 77.8525 141.142 77.8324 141.183 77.8324C140.841 78.0338 140.901 78.3359 140.62 78.7388C140.74 78.6179 140.74 78.7388 140.781 78.8395C140.821 78.9402 140.781 79.5244 140.499 79.2424C140.499 79.7056 140.238 80.2696 140.137 80.7732C140.048 81.1439 140.048 81.5306 140.137 81.9012C140.137 82.0019 140.037 82.2436 139.997 82.4048H140.117C139.988 82.6849 139.881 82.9744 139.796 83.2709C139.936 83.0494 139.977 83.1501 140.077 83.3716L139.856 83.7342H140.037C139.986 83.8914 139.986 84.0605 140.037 84.2177C140.037 84.2177 139.896 84.9629 139.816 85.0838C140.057 85.2047 139.816 85.5269 140.037 85.6075C140.258 85.6881 140.037 85.7485 140.037 85.8089C140.037 85.8694 139.816 85.8089 139.896 85.8089H140.037C140.024 85.9496 140.024 86.0912 140.037 86.2319L139.936 86.0909L140.057 86.2521C140.126 86.3447 140.162 86.4585 140.157 86.5744C140.297 86.8277 140.372 87.1111 140.379 87.4002C140.412 87.6552 140.509 87.8976 140.66 88.1052C140.66 88.1052 140.66 88.1052 140.66 87.9844C140.841 88.4476 141.243 88.7901 141.303 89.1124H141.162C141.279 89.3996 141.42 89.6759 141.585 89.9382C141.725 90.0994 141.886 90.4015 142.067 90.6634C142.248 90.9252 142.469 91.1267 142.67 91.1267C142.871 91.1267 143.072 91.5497 143.233 91.7309H143.353C143.53 91.8824 143.692 92.0511 143.836 92.2345C144.459 92.4762 144.78 92.9798 145.263 93.2819L145.725 93.6445C145.725 93.4834 145.725 93.7654 145.946 93.8056C146.121 93.9571 146.339 94.0489 146.569 94.0675L146.911 94.2085C146.569 93.9869 146.911 94.0876 147.052 93.9869L147.233 94.1481C147.233 94.1481 147.233 94.0071 147.233 94.0474C147.233 94.0876 147.775 94.3092 147.876 94.4905H147.715C147.715 94.4905 147.876 94.4905 147.856 94.6315H148.66C148.278 94.8128 149.383 94.7926 149.122 94.9941C149.403 94.8329 149.303 94.9941 149.484 94.8732C149.161 94.8134 148.857 94.6751 148.599 94.4704H148.881C148.881 94.2287 148.298 94.4704 148.177 94.3092C148.057 94.1481 148.499 94.3092 148.519 94.3092L148.398 94.4502C148.082 94.3936 147.789 94.2467 147.554 94.0272C147.816 94.0272 147.313 93.8258 147.554 93.7855H147.715L148.64 94.0675H148.821L149.785 94.2488C149.785 94.4099 150.228 94.5308 150.087 94.6517C150.248 94.6517 150.207 94.5107 150.549 94.6517C150.891 94.7927 150.248 94.8128 150.167 94.8531C150.408 94.9538 150.408 94.9941 150.408 95.0344C150.408 95.0746 150.851 94.5106 150.609 94.4099C150.455 94.4727 150.282 94.4727 150.127 94.4099C151.799 94.6128 153.495 94.4316 155.086 93.8802C156.678 93.3288 158.123 92.4216 159.313 91.2274C159.465 91.0764 159.606 90.9149 159.735 90.7439C159.735 90.9454 159.735 91.1468 159.936 91.1065L159.775 91.2475C159.956 91.2475 160.237 90.7641 160.438 90.7842C160.639 90.8044 160.619 90.3612 160.7 90.1396C160.78 89.9181 160.881 90.1397 160.84 90.2605C160.8 90.3814 161.041 90.0188 160.981 90.2605C161.283 89.4749 161.685 88.7901 162.026 88.0448C162.401 87.3313 162.633 86.5513 162.71 85.7485C162.71 85.6478 162.71 85.7485 162.83 85.7485C162.71 85.4464 162.971 85.5068 163.011 85.3456L162.81 84.9629C162.81 84.8018 162.951 84.9629 163.011 84.9629M140.318 83.2508H140.077L140.338 82.9889C140.348 83.0759 140.348 83.1638 140.338 83.2508M140.7 87.9038C140.71 87.7764 140.71 87.6485 140.7 87.5211H140.58C140.571 87.2671 140.633 87.0158 140.76 86.7959C140.815 86.9881 140.882 87.1765 140.961 87.3599C140.899 87.5652 140.825 87.7669 140.74 87.9642M142.127 77.0871V77.3087H142.007L141.906 77.4899C141.906 77.4899 141.906 77.4899 141.906 77.3691C141.906 77.2482 141.725 77.3691 141.745 77.3691L142.067 77.0267M142.067 89.8375C141.831 89.7058 141.609 89.5506 141.404 89.3742C141.404 89.3742 141.544 89.1929 141.705 89.1124L141.886 89.4548L141.745 89.6159L141.926 89.4951C141.988 89.6101 142.062 89.7181 142.147 89.8174M143.052 91.0461C143.04 90.9457 143.04 90.8443 143.052 90.7439L143.293 91.0058C143.241 90.9874 143.184 90.9874 143.132 91.0058M146.248 93.9466C146.047 93.9466 146.127 93.9466 146.248 93.9466V93.9466ZM146.248 93.8056C146.139 93.7891 146.035 93.7478 145.945 93.6849C145.854 93.6221 145.779 93.5394 145.725 93.4431C145.611 93.2102 145.419 93.0249 145.182 92.9194C145.182 92.9194 145.182 93.1812 144.921 92.9194C144.707 92.7174 144.554 92.4592 144.479 92.1741C144.936 92.5266 145.42 92.8431 145.926 93.1208C145.926 93.1208 145.745 93.1208 145.685 93.1208C145.837 93.1638 145.972 93.2558 146.067 93.3827H145.785C145.986 93.5035 146.208 93.3827 146.509 93.6445C146.388 93.6445 146.509 93.9668 146.248 93.9869" fill="#673065"/>
<path d="M135.213 49.0281C135.333 48.9274 135.213 48.4439 135.213 48.2022H135.092C135.06 47.9683 135.06 47.7311 135.092 47.4972C134.951 46.9225 134.863 46.3358 134.831 45.7448C134.841 45.5569 134.841 45.3687 134.831 45.1808C134.831 45.3419 134.831 45.0599 134.831 44.8988C134.806 44.6635 134.716 44.4399 134.57 44.2542L134.449 43.9118C134.449 44.3146 134.288 43.9118 134.168 43.9118V43.6701C134.168 43.5089 133.967 43.1061 134.027 42.9248C134.087 42.7435 134.027 42.9248 134.168 43.0255C134.168 43.0255 134.168 42.8442 134.168 42.8241C133.846 42.6428 133.866 42.4212 133.544 42.3004C133.946 42.4615 133.163 41.6759 133.544 41.7364C133.243 41.6356 133.424 41.5954 133.203 41.5551C133.389 41.8231 133.5 42.1361 133.524 42.4615L133.082 42.3004C133.082 42.5622 133.464 42.7636 133.464 42.9449C133.464 43.1262 133.303 42.6428 133.263 42.6629H133.444C133.625 42.9231 133.723 43.2321 133.725 43.5492C133.565 43.3478 133.725 43.8715 133.565 43.7506V43.5694C133.424 43.2672 133.263 42.9852 133.122 42.7032L133.002 42.5421C132.84 42.2548 132.658 41.9789 132.459 41.7162C132.58 41.5954 132.459 41.1925 132.459 41.2328C132.459 41.2731 132.278 41.2328 132.097 40.9306C131.916 40.6285 132.419 41.0314 132.519 41.0716C132.62 41.1119 132.519 40.7896 132.519 40.7494C132.218 40.7494 131.856 40.7494 131.936 41.0515L131.655 40.7292C131.776 40.8299 131.655 40.7292 131.655 40.6084C130.622 39.4567 129.363 38.531 127.957 37.8891H127.494C124.037 37.8891 117.887 38.7351 115.595 44.2945H115.334C115.979 41.6157 117.374 39.1769 119.354 37.2646C118.573 37.4779 117.847 37.8555 117.223 38.3725C117.062 38.6545 116.942 38.3725 116.801 38.5135L116.58 38.9566C116.419 38.9566 116.58 38.9566 116.439 38.8358C115.756 39.2789 115.334 40.0041 114.791 40.3868C114.791 40.6084 114.972 40.3868 114.791 40.7091C114.791 40.4875 114.671 40.6084 114.51 40.7091C114.349 40.8098 114.208 41.0314 114.208 40.8904C114.208 41.2731 113.686 41.7364 114.047 41.8371C113.887 42.1191 113.766 41.9781 113.806 41.8371C113.65 42.1366 113.446 42.4087 113.203 42.6428C113.09 42.9539 112.956 43.2568 112.801 43.5492C112.621 43.8744 112.544 44.2467 112.58 44.6168C112.48 44.3348 112.48 44.6168 112.339 44.7981V44.5564C112.283 44.7147 112.236 44.8761 112.198 45.0398V45.1808C112.198 45.1808 112.198 45.1808 112.198 45.4024C112.198 45.6239 112.037 45.7247 111.917 45.9059V46.1275C111.917 46.3088 112.178 45.5635 112.158 46.1275C112.158 46.1275 111.857 46.4296 111.937 46.5908C111.937 46.3088 112.078 46.3692 112.118 46.4699C112.108 46.604 112.108 46.7387 112.118 46.8728L111.917 46.7116C111.776 47.9248 111.803 49.1517 111.997 50.3575C112.178 50.3575 112.198 51.2035 112.419 51.0222C112.419 50.7402 112.62 51.0222 112.661 51.3042C112.52 51.0826 112.54 51.7876 112.339 51.3042C112.329 51.4652 112.329 51.6267 112.339 51.7876C112.138 51.9891 112.339 52.3114 112.339 52.6336C112.572 52.9604 112.755 53.3202 112.882 53.7012C112.877 53.6678 112.877 53.6339 112.882 53.6005C113.042 54.2652 113.746 54.7889 113.746 54.9501H113.907C113.933 55.1657 114.006 55.373 114.121 55.5574C114.235 55.7418 114.389 55.8989 114.57 56.0176C114.57 55.9169 114.57 56.0176 114.57 56.0176C114.578 56.1532 114.617 56.2851 114.683 56.4036C114.749 56.5222 114.841 56.6243 114.952 56.7025L115.454 57.2061C115.595 57.0449 115.776 57.2061 115.997 57.5485C116.218 57.8909 116.48 58.0521 116.681 57.9111C116.681 58.0924 117.143 58.4146 117.304 58.5758C117.424 58.8981 118.027 58.8779 118.268 59.0391C118.51 59.2002 118.268 59.2002 118.268 59.2204C118.691 59.2204 119.193 59.8246 119.354 59.7844C119.515 59.7441 119.515 59.6635 119.615 59.6031C119.716 59.5427 119.434 59.9455 120.037 59.9455C120.037 59.9455 119.856 59.9455 119.917 59.8448C119.977 59.7441 120.62 59.5024 120.801 59.6434H120.66C121.022 59.8448 121.605 59.4621 121.625 59.7441V59.8851H122.59C122.891 59.8851 123.052 59.7642 123.193 59.8851H123.092C123.346 59.9151 123.603 59.9151 123.856 59.8851C123.856 59.8851 124.097 59.8851 124.138 59.8851C124.178 59.8851 125.022 59.8851 125.183 59.8851C124.881 59.8851 125.002 59.8851 125.183 59.7239C125.256 59.7863 125.348 59.8206 125.444 59.8206C125.54 59.8206 125.633 59.7863 125.705 59.7239C125.705 59.9254 125.886 60.1469 126.369 60.0261H126.208C126.208 60.0261 126.369 60.0261 126.409 60.0261C126.449 60.0261 126.288 60.0261 126.409 59.8851C126.791 60.0059 126.972 59.7441 127.454 59.6635C127.273 59.6635 127.454 59.6635 127.454 59.4822C127.575 59.7038 127.977 59.0391 127.916 59.4822C128.318 59.2204 128.841 58.9585 129.283 58.6966C129.625 58.5196 129.927 58.2725 130.168 57.9715C130.168 57.8305 130.489 57.7902 130.61 57.7096C130.899 57.6072 131.181 57.4861 131.454 57.3471C131.213 57.3471 131.253 57.3471 131.333 57.0651H131.756V56.8838C131.916 56.8838 131.997 56.6824 132.097 56.5414C132.097 56.5414 132.74 56.1385 132.881 56.1184C133.022 56.0982 133.183 55.7961 133.082 55.5745L133.263 55.4537C133.263 55.5745 133.384 55.6752 133.424 55.4537V55.3126L133.685 55.0105C133.674 55.0636 133.674 55.1185 133.685 55.1716C133.695 55.1116 133.695 55.0504 133.685 54.9904C133.692 54.9379 133.71 54.8876 133.738 54.8425C133.766 54.7975 133.803 54.7586 133.846 54.7285C133.923 54.4489 134.068 54.1928 134.268 53.9832C134.475 53.7487 134.596 53.4501 134.61 53.1372C134.61 53.1372 134.61 53.3386 134.61 53.3588C134.811 52.9156 134.771 52.3919 134.951 52.1301H135.072C135.214 51.8483 135.321 51.5508 135.394 51.2438H135.514C135.514 51.0424 135.635 50.7201 135.695 50.3978C135.755 50.0755 135.695 49.7935 135.695 49.6525M125.685 59.2606H125.203C125.267 59.218 125.321 59.1633 125.364 59.0995H125.585H125.806C125.806 59.0995 125.806 59.0995 125.806 59.2002C125.806 59.3009 125.947 59.3211 125.906 59.3412M130.751 56.4004L130.952 56.2191C130.952 56.2191 131.072 56.3802 131.132 56.4004H130.751ZM131.916 40.9911C131.987 41.0273 132.049 41.0785 132.097 41.1411C132.146 41.2038 132.18 41.2763 132.198 41.3537L131.916 40.9911ZM134.529 44.4154C134.529 44.5564 134.529 44.6168 134.529 44.4154V44.4154ZM133.705 52.9358V53.0566C133.531 53.2379 133.307 53.3639 133.062 53.4192L133.323 52.8955L133.906 52.6135L133.645 52.9358M134.027 51.0222C134.051 50.8857 134.084 50.7511 134.127 50.6194H134.348H134.147V50.2367C134.21 50.5014 134.25 50.7709 134.268 51.0424C134.144 51.0811 134.011 51.0811 133.886 51.0424M134.228 49.0281C134.238 48.9074 134.238 48.7862 134.228 48.6655C134.228 48.6655 134.228 48.7662 134.348 48.6655C134.318 48.7669 134.27 48.8623 134.208 48.9475M134.208 46.9332C134.15 46.3757 134.049 45.8235 133.906 45.2815C133.892 45.3411 133.892 45.4032 133.906 45.4628C133.859 45.3121 133.859 45.1502 133.906 44.9995L134.047 45.2614C134.047 45.0196 133.806 44.8988 133.745 44.5564C133.866 44.5564 133.926 44.2945 134.147 44.5564C134.215 44.6437 134.261 44.7457 134.282 44.8542C134.303 44.9626 134.298 45.0745 134.268 45.1808C134.195 45.4238 134.195 45.6831 134.268 45.9261C134.268 45.9261 134.409 45.7246 134.429 46.1678C134.422 46.4595 134.339 46.7442 134.188 46.9936" fill="#673065"/>
<path d="M106.852 92.1334C106.59 92.0327 106.389 92.496 106.209 92.5162C106.028 92.5363 106.51 92.3349 106.49 92.2946V92.4759C106.231 92.6621 105.924 92.7673 105.606 92.778C105.746 92.6572 105.606 92.778 105.445 92.778C105.009 93.2222 104.523 93.6142 103.998 93.9463C104.082 93.9755 104.174 93.9755 104.259 93.9463C104.495 93.9253 104.719 93.8341 104.902 93.6844L105.224 93.5434C104.822 93.5434 105.224 93.3823 105.224 93.2614H105.485C105.485 93.2614 105.304 93.2614 105.485 93.1406C105.666 93.0197 106.048 92.9593 106.229 92.9996C106.242 93.0457 106.242 93.0945 106.229 93.1406C106.47 92.9794 106.389 93.1406 106.41 93.1406C106.611 92.8183 106.832 92.8384 106.912 92.5162C106.771 92.919 107.535 92.1334 107.495 92.5162C107.595 92.214 107.636 92.4154 107.676 92.1939C107.407 92.3801 107.096 92.4976 106.771 92.5363L106.852 92.1334ZM104.621 93.5837C104.42 93.6844 104.48 93.5837 104.621 93.5837V93.5837Z" fill="#673065"/>
<path d="M112.118 80.7124C112.118 80.7124 112.259 80.5916 112.299 80.7124C112.339 80.8333 112.299 80.4103 112.399 80.6117C112.038 79.8463 111.837 79.0607 111.555 78.3154C111.313 77.5777 110.93 76.8938 110.43 76.3011C110.43 76.3011 110.43 76.3011 110.53 76.3011C110.229 76.14 110.43 76.0191 110.369 75.858L109.927 75.6767C109.927 75.4753 109.927 75.5357 110.028 75.4954C109.565 74.8106 108.862 74.4278 108.46 73.884C108.259 73.884 108.46 74.0653 108.158 73.884C108.379 73.884 108.158 73.743 108.158 73.5818C108.158 73.4207 107.817 73.2998 107.977 73.2998C107.616 73.2998 107.133 72.756 107.033 73.1387C106.751 72.9776 106.892 72.8567 107.033 72.897C106.733 72.7405 106.456 72.544 106.209 72.3128C106.108 72.3128 105.726 72.0711 105.304 71.91C104.982 71.7244 104.606 71.6534 104.239 71.7086C104.5 71.5877 104.239 71.6078 104.058 71.4668H104.279H103.797H103.676C103.676 71.4668 103.676 71.5676 103.455 71.4668C103.261 71.4454 103.081 71.352 102.952 71.205H102.731C102.55 71.205 103.294 71.4668 102.731 71.4467C102.731 71.4467 102.45 71.1446 102.269 71.2453C102.57 71.2453 102.51 71.3661 102.41 71.4064H102.008L102.168 71.2251C100.981 71.1461 99.788 71.248 98.6308 71.5273C98.6308 71.6884 97.7866 71.7086 97.9675 71.9503C98.2489 71.9503 97.9675 72.1718 97.6861 72.2121C97.9072 72.051 97.1836 72.0913 97.6861 71.8697H97.2037C96.9826 71.6884 96.6811 71.8697 96.3595 71.9906C96.0241 72.2137 95.6672 72.4027 95.2942 72.5546C94.6309 72.7157 94.1284 73.4207 93.9676 73.4207V73.5818C93.7515 73.6131 93.5446 73.6904 93.3609 73.8085C93.1771 73.9266 93.0208 74.0829 92.9023 74.2667C92.9023 74.2667 93.0028 74.2667 92.9023 74.2667C92.6355 74.3178 92.3982 74.4691 92.239 74.6897L91.7365 75.1933C91.8973 75.3343 91.7365 75.5156 91.4149 75.7371C91.0933 75.9587 90.9124 76.2206 91.0531 76.4421C90.8722 76.4421 90.5707 76.8853 90.4099 77.0666C90.0682 77.1874 90.1084 77.7917 89.9677 78.0536C89.827 78.3154 89.8069 78.0536 89.7667 78.0536C89.7667 78.4766 89.1838 79.0003 89.224 79.1614C89.2642 79.3226 89.3446 79.3226 89.4049 79.4233C89.4652 79.524 89.0632 79.242 89.0632 79.8463C89.0632 79.8463 89.0632 79.665 89.1637 79.7254C89.2642 79.7858 89.5255 80.4304 89.3848 80.6117V80.4506C89.2039 80.8333 89.5657 81.3973 89.3848 81.4376H89.2642C89.3647 82.1224 89.2642 81.7196 89.2642 82.4044C89.2642 82.7066 89.4049 82.8476 89.2642 83.0087V82.5857C89.2342 82.8467 89.2342 83.1103 89.2642 83.3713C89.2642 83.3713 89.2642 83.5928 89.2642 83.6533C89.2642 83.7137 89.2642 84.5194 89.2642 84.6806C89.2642 84.3986 89.2642 84.5194 89.425 84.6806C89.3647 84.7583 89.332 84.854 89.332 84.9525C89.332 85.051 89.3647 85.1467 89.425 85.2244C89.224 85.2244 88.9828 85.4057 89.1235 85.8891V85.728C89.1235 85.728 89.1235 85.8891 89.1235 85.9294C89.1235 85.9697 89.1235 85.7884 89.2642 85.9294C89.1436 86.3121 89.4049 86.4733 89.5054 86.9567C89.5054 86.7956 89.6059 86.9567 89.6863 86.9567C89.7667 86.9567 90.1285 87.4804 89.6863 87.4401C89.9677 87.8228 90.229 88.3466 90.5104 88.7897C90.6853 89.1281 90.9324 89.4238 91.234 89.6558C91.3546 89.6558 91.3948 89.958 91.4953 90.099C91.7961 90.3152 92.1196 90.4976 92.4601 90.6428C92.4601 90.4011 92.4601 90.4213 92.7214 90.5018C92.7644 90.6404 92.798 90.7817 92.8219 90.9248H93.0028C93.0028 91.086 93.1837 91.1666 93.3244 91.2673C93.3244 91.2673 93.7465 91.8917 93.7666 92.0327C93.7867 92.1737 94.0882 92.355 94.3093 92.2341C94.3027 92.2944 94.3027 92.3552 94.3093 92.4154C94.3093 92.4154 94.1083 92.5363 94.3093 92.5766H94.4299L94.7314 92.7981H95.7364L95.6158 92.5161L96.1585 92.778H96.6811C100.158 92.778 106.309 91.9521 108.58 86.3726H108.842C108.265 88.5983 107.193 90.6642 105.706 92.4154C105.992 92.3216 106.268 92.2002 106.53 92.0528H106.711C106.991 91.8903 107.26 91.7085 107.515 91.509C107.656 91.509 108.038 91.509 108.018 91.509C107.997 91.509 108.018 91.3277 108.299 91.1464C108.58 90.9651 108.299 91.4687 108.178 91.5694C108.058 91.6701 108.44 91.5694 108.48 91.5694C108.48 91.2673 108.48 90.9047 108.178 91.0054C108.142 91.076 108.091 91.1379 108.029 91.1866C107.966 91.2353 107.894 91.2697 107.817 91.2874C109.141 90.2502 110.212 88.9235 110.947 87.4084C111.682 85.8934 112.062 84.23 112.058 82.5454C112.058 82.3238 112.058 82.1224 112.058 81.9008C112.198 82.0418 112.339 82.1828 112.44 82.0217V82.2231C112.62 82.2231 112.44 81.5786 112.58 81.4376C112.505 81.2179 112.418 81.0027 112.319 80.793M89.8672 84.9223C89.8672 84.9223 89.8672 85.0834 89.7265 85.023V84.5396L89.8873 84.7007V84.9223V85.1438C89.8873 85.1438 89.8873 85.1438 89.7667 85.1438M92.5204 90.5824V90.1997L92.7013 90.4011C92.6313 90.4509 92.5701 90.5122 92.5204 90.5824Z" fill="#673065"/>
<path d="M62.6116 81.6797C62.6116 81.6797 62.7724 81.5589 62.7925 81.6797C62.8126 81.8006 62.7925 81.3575 62.893 81.5589C62.5513 80.7935 62.3503 80.028 62.0689 79.2626C61.8251 78.4908 61.4363 77.7729 60.9232 77.1476C60.9232 77.1476 60.9232 77.1476 61.0237 77.1476C60.7222 76.9865 61.0237 76.8656 60.8629 76.7045L60.4207 76.5433C60.4207 76.362 60.5212 76.4023 60.5413 76.3822C60.079 75.6973 59.3554 75.2945 58.9735 74.7506C58.7524 74.7506 58.873 74.9319 58.6519 74.7506C58.873 74.7506 58.7524 74.6096 58.6519 74.4686C58.5514 74.3276 58.3102 74.1665 58.471 74.1665C58.0891 74.1665 57.6067 73.6427 57.5263 74.0255C57.2248 73.8643 57.3655 73.7435 57.5263 73.7636C57.3294 73.6503 57.1413 73.5224 56.9635 73.3809H55.5163C52.039 73.3809 45.8884 74.2067 43.6171 79.7863H43.3558C44.0229 76.9682 45.547 74.4273 47.7175 72.5147C47.5942 72.4906 47.467 72.4943 47.3453 72.5257C47.2236 72.557 47.1104 72.6152 47.014 72.696C46.6902 72.9266 46.3391 73.116 45.9688 73.26H46.0693C45.406 73.4212 44.8834 74.1262 44.7226 74.1463V74.2873C44.5065 74.3185 44.2996 74.3958 44.1159 74.514C43.9321 74.6321 43.7757 74.7884 43.6573 74.9722C43.5235 74.9844 43.3942 75.027 43.2792 75.0968C43.1643 75.1666 43.0668 75.2618 42.994 75.375L42.4915 75.8786C42.6523 76.0196 42.4915 76.2009 42.1699 76.4224C41.8483 76.644 41.6674 76.9059 41.8081 77.1275C41.6272 77.1275 41.3257 77.5907 41.1448 77.7519C40.8232 77.8727 40.8634 78.477 40.7026 78.7389C40.5418 79.0007 40.5619 78.7389 40.5217 78.7389C40.5217 79.1619 39.9388 79.6856 39.9589 79.8467C39.979 80.0079 40.0996 80.0079 40.1599 80.1086C40.2202 80.2093 39.8182 79.9273 39.8182 80.5316C39.8182 80.5316 39.8182 80.3503 39.9187 80.4107C40.0192 80.4712 40.2805 81.1157 40.1398 81.297V81.156C39.9388 81.5186 40.3207 82.1027 40.0393 82.1229H39.9187C39.9187 82.8077 39.8182 82.4049 39.9187 83.0897C39.9187 83.3919 40.0594 83.553 39.9187 83.694C39.8888 83.9483 39.8888 84.2052 39.9187 84.4595C39.9187 84.4595 39.9187 84.7012 39.9187 84.7415C39.9187 84.7817 39.9187 85.6277 39.9187 85.7889C39.9187 85.4867 39.9187 85.6076 40.0795 85.7889C40.0172 85.8619 39.983 85.9547 39.983 86.0507C39.983 86.1468 40.0172 86.2396 40.0795 86.3126C39.8785 86.3126 39.6373 86.4939 39.7579 86.9974V86.8162C39.7579 86.8162 39.7579 86.9773 39.7579 87.0176C39.7579 87.0579 39.7579 86.8967 39.8785 86.9169C39.778 87.2996 40.0393 87.4809 40.1197 87.9442C40.1197 87.783 40.2202 87.9442 40.3207 87.9442C40.0996 88.0852 40.7629 88.4679 40.3207 88.4276C40.6021 88.8103 40.8634 89.334 41.1247 89.7772C41.312 90.1131 41.5649 90.4077 41.8684 90.6433C41.989 90.6433 42.0292 90.9656 42.1297 91.0865C42.2503 91.5497 42.2905 91.3886 42.5116 91.9123C42.5116 91.6706 42.5116 91.7109 42.7729 91.7713C42.7969 91.9144 42.8305 92.0557 42.8734 92.1943H43.0342C43.1115 92.335 43.2311 92.4478 43.3759 92.5166C43.3759 92.5166 43.7779 93.141 43.798 93.3022C43.8181 93.4633 44.1196 93.6043 44.3407 93.5036L44.4613 93.6647C44.3407 93.6647 44.2603 93.7856 44.4613 93.8259H44.5819L44.9035 94.0877H44.7427H44.9236C44.9778 94.0899 45.031 94.1035 45.0795 94.1278C45.128 94.1522 45.1708 94.1866 45.205 94.2287C45.484 94.3059 45.7396 94.4512 45.9487 94.6517C46.1789 94.8629 46.4808 94.9782 46.7929 94.974C46.7215 95.0002 46.6432 95.0002 46.5718 94.974C47.0341 95.1553 47.5366 95.1352 47.818 95.2963V95.4172C48.1018 95.5477 48.3982 95.6489 48.7024 95.7193V95.8603C48.9235 95.8603 49.2451 95.8603 49.5667 96.0214C49.6832 96.0756 49.8101 96.1036 49.9386 96.1036C50.067 96.1036 50.1939 96.0756 50.3104 96.0214C50.4109 96.1423 50.9134 96.0214 51.1345 96.0214C51.368 95.9906 51.6045 95.9906 51.838 96.0214C52.411 95.8735 52.9964 95.7791 53.5867 95.7395H54.1495H54.4309C54.6605 95.7182 54.878 95.6268 55.054 95.4776L55.3957 95.3366C54.9937 95.3366 55.3957 95.1754 55.3957 95.0546H55.6369C55.6369 94.9539 55.456 95.0546 55.6369 94.9337C55.8178 94.8129 56.1997 94.7323 56.3806 94.7726C56.3754 94.8021 56.3637 94.8301 56.3463 94.8545C56.3289 94.8789 56.3063 94.8991 56.2801 94.9136C56.5213 94.7525 56.461 94.9136 56.4811 94.9136C56.662 94.5913 56.8831 94.6115 56.9836 94.2892C56.8429 94.692 57.6067 93.8863 57.5665 94.2892C57.5665 94.0072 57.7072 94.2892 57.7273 93.9669C57.4581 94.1531 57.1476 94.2706 56.8228 94.3093L56.9836 94.0676C56.7424 94.0676 56.5414 94.4302 56.3605 94.4503C56.4811 94.4503 56.662 94.2892 56.6419 94.2287V94.41C56.3762 94.5968 56.0618 94.7018 55.7374 94.7122C55.9384 94.551 55.4359 94.7122 55.5364 94.551H55.7173C56.0188 94.41 56.3002 94.2489 56.5816 94.0877L56.7424 93.987C57.0238 93.8057 57.3052 93.6245 57.5665 93.423C57.6871 93.5439 58.0891 93.423 58.0489 93.423C58.0087 93.423 58.0489 93.2417 58.3504 93.0806C58.6519 92.9195 58.2499 93.3827 58.2097 93.4835C58.1695 93.5842 58.4911 93.4835 58.5313 93.4835C58.5313 93.1813 58.5313 92.8187 58.2097 92.9195C58.1316 93.0624 58.0023 93.1703 57.8479 93.2216L58.2097 92.9195C58.3264 92.8293 58.4341 92.7281 58.5313 92.6173C58.4308 92.7583 58.5313 92.718 58.672 92.6173C58.8127 92.5166 58.672 92.6173 58.5715 92.6173C59.6875 91.5921 60.581 90.3477 61.1966 88.9616C61.8121 87.5755 62.1364 86.0773 62.1493 84.5602C62.1493 84.3587 62.1493 84.1372 62.1493 83.9156C62.3101 84.0566 62.4307 84.1976 62.5513 84.0365V84.258C62.7121 84.258 62.5513 83.5933 62.692 83.4523L62.4106 82.8077M40.1599 87.0377C40.1599 87.0377 40.0594 87.1989 40.0192 87.0377C40.0091 86.8835 40.0091 86.7287 40.0192 86.5745L40.1599 86.7155C40.1599 86.7155 40.1599 86.7155 40.1599 86.8363V86.937V87.1586C40.138 87.1693 40.1139 87.1748 40.0896 87.1748C40.0652 87.1748 40.0411 87.1693 40.0192 87.1586M42.793 92.577C42.7829 92.4564 42.7829 92.3351 42.793 92.2144L42.9739 92.4159C42.8969 92.4472 42.8331 92.5041 42.793 92.577ZM46.6321 93.8662H46.5115C46.3242 93.6932 46.1915 93.4692 46.1296 93.2216L46.6723 93.4835L46.9537 94.0676L46.6321 93.8057M49.3456 94.41C49.0856 94.4924 48.8143 94.5332 48.5416 94.5309C48.503 94.4063 48.503 94.2728 48.5416 94.1482H48.9235V94.3697V94.1683H49.2853M50.7727 94.3697C50.67 94.3434 50.574 94.2953 50.4913 94.2287H50.8531C50.8531 94.2287 50.8531 94.2287 50.8531 94.3496M54.451 94.2086C54.2098 94.1272 53.9486 94.1272 53.7073 94.2086C53.7073 94.2086 53.9083 94.3496 53.4862 94.3697C53.1892 94.3809 52.8955 94.3038 52.642 94.1482C53.2057 94.0748 53.7633 93.9603 54.3103 93.8057H54.1093C54.261 93.7674 54.4199 93.7674 54.5716 93.8057L54.3103 93.9467C54.5515 93.9467 54.6721 93.705 55.0138 93.6446C55.0138 93.7655 55.2751 93.8259 55.0138 94.0474C54.9267 94.1151 54.8249 94.1613 54.7166 94.1823C54.6084 94.2033 54.4968 94.1985 54.3907 94.1683M55.0741 94.1683C54.8932 94.1683 54.9535 94.1683 55.0741 94.1683V94.1683Z" fill="#673065"/>
<path d="M157.825 92.8794L158.107 92.819L158.046 92.7988L157.825 92.8794Z" fill="#673065"/>
<path d="M153.403 94.9133L153.504 94.8932L153.363 94.873L153.403 94.9133Z" fill="#673065"/>
<path d="M150.248 95.1748H150.287V95.1553L150.248 95.1748Z" fill="#673065"/>
<path d="M149.484 95.1754L149.625 95.256V95.1553L149.484 95.1754Z" fill="#673065"/>
<path d="M149.021 94.4705L149.122 94.3496H148.961L149.021 94.4705Z" fill="#673065"/>
<path d="M160.036 91.3479L159.996 91.509L160.117 91.3076L160.036 91.3479Z" fill="#673065"/>
<path d="M125.384 36.8016L125.585 36.9024L125.344 36.7412L125.384 36.8016Z" fill="#673065"/>
<path d="M130.329 38.6543L130.53 38.7752L130.349 38.6543H130.329Z" fill="#673065"/>
<path d="M130.128 38.7351L130.148 38.6747L130.047 38.6143L130.128 38.7351Z" fill="#673065"/>
<path d="M132.479 40.7491H132.518L132.499 40.7295L132.479 40.7491Z" fill="#673065"/>
<path d="M132.921 41.2329L133.042 41.2933L133.002 41.1523L132.921 41.2329Z" fill="#673065"/>
<path d="M132.72 42.1393L132.821 42.2601L132.861 42.1191L132.72 42.1393Z" fill="#673065"/>
<path d="M122.871 36.3583L122.952 36.3986L123.113 36.2979L122.871 36.3583Z" fill="#673065"/>
</g>
<defs>
<clipPath id="clip0_178_1717">
<rect width="201" height="141" fill="white"/>
</clipPath>
</defs>
</svg>
